<mxfile host="app.diagrams.net" modified="2021-09-21T00:18:47.668Z" agent="5.0 (Macintosh; Intel Mac OS X 10_15_7) AppleWebKit/537.36 (KHTML, like Gecko) Chrome/93.0.4577.82 Safari/537.36" etag="juYHkCRpXZ3c5DQASWSk" version="15.2.7" type="github" pages="3">
  <diagram id="sDqNfvwck9Fh0_tjBqIC" name="Requerimientos">
    <mxGraphModel dx="1497" dy="830" grid="1" gridSize="10" guides="1" tooltips="1" connect="1" arrows="1" fold="1" page="1" pageScale="1" pageWidth="850" pageHeight="1100" math="0" shadow="0">
      <root>
        <mxCell id="0" />
        <mxCell id="1" parent="0" />
        <mxCell id="nZFq6aALJTiPtMnAZvbF-1" value="&lt;h1 class=&quot;title is-1&quot; style=&quot;box-sizing: inherit ; font-size: 2.5rem ; margin: 0px 0px 1.5rem ; padding: 0px ; font-weight: 600 ; outline-color: inherit ; word-break: break-word ; line-height: 1.125 ; color: rgb(23 , 23 , 23) ; font-family: &amp;#34;segoe ui&amp;#34; , &amp;#34;segoeui&amp;#34; , &amp;#34;helvetica neue&amp;#34; , &amp;#34;helvetica&amp;#34; , &amp;#34;arial&amp;#34; , sans-serif ; font-style: normal ; letter-spacing: normal ; text-indent: 0px ; text-transform: none ; word-spacing: 0px ; background-color: rgb(255 , 255 , 255)&quot;&gt;Cloud Native Applications&lt;/h1&gt;" style="text;whiteSpace=wrap;html=1;" parent="1" vertex="1">
          <mxGeometry x="10" y="70" width="550" height="60" as="geometry" />
        </mxCell>
        <mxCell id="nZFq6aALJTiPtMnAZvbF-5" value="Integración y Despliegue Continuo&lt;br&gt;&lt;br&gt;Exposición de Servicios ​&lt;br style=&quot;font-size: 15px&quot;&gt;&lt;br style=&quot;font-size: 15px&quot;&gt;Gestión de Contenedores&lt;br style=&quot;font-size: 15px&quot;&gt;&lt;br style=&quot;font-size: 15px&quot;&gt;Autenticación  API​&lt;br style=&quot;font-size: 15px&quot;&gt;&lt;br style=&quot;font-size: 15px&quot;&gt;Seguridad para aplicaciones y API&lt;br style=&quot;font-size: 15px&quot;&gt;&lt;br style=&quot;font-size: 15px&quot;&gt;​Base de datos como servicio.​ (Relacionales y No Relacionales)&lt;br style=&quot;font-size: 15px&quot;&gt;&lt;br style=&quot;font-size: 15px&quot;&gt;Gestión documental de archivos&lt;br&gt;&lt;br&gt;Gestión de Monitoreo&lt;br&gt;- Manejo de logs&lt;br&gt;- Manejo de alertas" style="text;whiteSpace=wrap;html=1;fontSize=15;" parent="1" vertex="1">
          <mxGeometry x="20" y="140" width="660" height="320" as="geometry" />
        </mxCell>
      </root>
    </mxGraphModel>
  </diagram>
  <diagram name="AZ- TO BE Alto Nivel" id="F5kwtZmzvuoUX2TZTr-E">
    <mxGraphModel dx="2324" dy="-339" grid="1" gridSize="10" guides="1" tooltips="1" connect="1" arrows="1" fold="1" page="1" pageScale="1" pageWidth="827" pageHeight="1169" math="0" shadow="0">
      <root>
        <mxCell id="C1qNaE6wFHK00PiSsJT4-0" />
        <mxCell id="C1qNaE6wFHK00PiSsJT4-1" parent="C1qNaE6wFHK00PiSsJT4-0" />
        <mxCell id="F8izz3wL6bqQNi6R3ZYM-0" value="" style="rounded=0;whiteSpace=wrap;html=1;" parent="C1qNaE6wFHK00PiSsJT4-1" vertex="1">
          <mxGeometry x="-820" y="1459.5" width="1330" height="850.5" as="geometry" />
        </mxCell>
        <mxCell id="ZF9I2wXu-rJIPe04N9b9-1" value="" style="rounded=1;whiteSpace=wrap;html=1;strokeWidth=2;strokeColor=#666666;" parent="C1qNaE6wFHK00PiSsJT4-1" vertex="1">
          <mxGeometry x="-377.25" y="1985" width="651.5" height="145" as="geometry" />
        </mxCell>
        <mxCell id="aqXjaQ3aQLY0OUibcdgp-0" style="edgeStyle=orthogonalEdgeStyle;rounded=0;orthogonalLoop=1;jettySize=auto;html=1;" parent="C1qNaE6wFHK00PiSsJT4-1" source="aqXjaQ3aQLY0OUibcdgp-1" target="aqXjaQ3aQLY0OUibcdgp-2" edge="1">
          <mxGeometry relative="1" as="geometry" />
        </mxCell>
        <mxCell id="aqXjaQ3aQLY0OUibcdgp-1" value="" style="rounded=1;whiteSpace=wrap;html=1;strokeWidth=2;strokeColor=#666666;" parent="C1qNaE6wFHK00PiSsJT4-1" vertex="1">
          <mxGeometry x="-800" y="1785" width="300" height="230" as="geometry" />
        </mxCell>
        <mxCell id="WXBp0yf-UcAkLCIpXzWZ-0" style="edgeStyle=orthogonalEdgeStyle;rounded=0;orthogonalLoop=1;jettySize=auto;html=1;entryX=0.081;entryY=0.483;entryDx=0;entryDy=0;entryPerimeter=0;endArrow=classic;endFill=1;" parent="C1qNaE6wFHK00PiSsJT4-1" source="aqXjaQ3aQLY0OUibcdgp-2" target="aqXjaQ3aQLY0OUibcdgp-7" edge="1">
          <mxGeometry relative="1" as="geometry" />
        </mxCell>
        <mxCell id="aqXjaQ3aQLY0OUibcdgp-2" value="Azure Container Registry" style="aspect=fixed;html=1;points=[];align=center;image;fontSize=12;image=img/lib/azure2/containers/Container_Registries.svg;strokeColor=#B3B3B3;strokeWidth=2;" parent="C1qNaE6wFHK00PiSsJT4-1" vertex="1">
          <mxGeometry x="-423" y="1869.5" width="68" height="61" as="geometry" />
        </mxCell>
        <mxCell id="aqXjaQ3aQLY0OUibcdgp-3" value="Azure DevOps" style="aspect=fixed;html=1;points=[];align=center;image;fontSize=12;image=img/lib/azure2/devops/Azure_DevOps.svg;strokeColor=#B3B3B3;strokeWidth=2;" parent="C1qNaE6wFHK00PiSsJT4-1" vertex="1">
          <mxGeometry x="-690" y="1795" width="64" height="64" as="geometry" />
        </mxCell>
        <mxCell id="aqXjaQ3aQLY0OUibcdgp-4" value="Azure Pipelines" style="aspect=fixed;html=1;points=[];align=center;image;fontSize=12;image=img/lib/mscae/Azure_Pipelines.svg;strokeColor=#B3B3B3;strokeWidth=2;" parent="C1qNaE6wFHK00PiSsJT4-1" vertex="1">
          <mxGeometry x="-610" y="1935" width="50" height="50" as="geometry" />
        </mxCell>
        <mxCell id="aqXjaQ3aQLY0OUibcdgp-5" style="edgeStyle=orthogonalEdgeStyle;rounded=0;orthogonalLoop=1;jettySize=auto;html=1;" parent="C1qNaE6wFHK00PiSsJT4-1" source="aqXjaQ3aQLY0OUibcdgp-6" target="aqXjaQ3aQLY0OUibcdgp-4" edge="1">
          <mxGeometry relative="1" as="geometry" />
        </mxCell>
        <mxCell id="aqXjaQ3aQLY0OUibcdgp-6" value="Bitbucket" style="image;image=img/lib/atlassian/Bitbucket_Logo.svg;strokeColor=#B3B3B3;strokeWidth=2;" parent="C1qNaE6wFHK00PiSsJT4-1" vertex="1">
          <mxGeometry x="-760" y="1935" width="57" height="50" as="geometry" />
        </mxCell>
        <mxCell id="ZF9I2wXu-rJIPe04N9b9-4" style="edgeStyle=orthogonalEdgeStyle;rounded=0;orthogonalLoop=1;jettySize=auto;html=1;endArrow=classic;endFill=1;" parent="C1qNaE6wFHK00PiSsJT4-1" source="aqXjaQ3aQLY0OUibcdgp-7" target="ZF9I2wXu-rJIPe04N9b9-1" edge="1">
          <mxGeometry relative="1" as="geometry" />
        </mxCell>
        <mxCell id="aqXjaQ3aQLY0OUibcdgp-7" value="Azure Kubernetes Services" style="aspect=fixed;html=1;points=[];align=center;image;fontSize=12;image=img/lib/azure2/containers/Kubernetes_Services.svg;strokeColor=#B3B3B3;strokeWidth=2;" parent="C1qNaE6wFHK00PiSsJT4-1" vertex="1">
          <mxGeometry x="-85.5" y="1871" width="68" height="60" as="geometry" />
        </mxCell>
        <mxCell id="aqXjaQ3aQLY0OUibcdgp-8" value="Azure Database PostgreSQL Service" style="aspect=fixed;html=1;points=[];align=center;image;fontSize=12;image=img/lib/azure2/databases/Azure_Database_PostgreSQL_Server.svg;strokeColor=#B3B3B3;strokeWidth=2;" parent="C1qNaE6wFHK00PiSsJT4-1" vertex="1">
          <mxGeometry x="-298" y="2010" width="48" height="64" as="geometry" />
        </mxCell>
        <mxCell id="I5mBjLB2NCfeR9yYZPKq-0" style="edgeStyle=orthogonalEdgeStyle;rounded=0;orthogonalLoop=1;jettySize=auto;html=1;endArrow=classic;endFill=1;" parent="C1qNaE6wFHK00PiSsJT4-1" source="aqXjaQ3aQLY0OUibcdgp-12" target="aqXjaQ3aQLY0OUibcdgp-7" edge="1">
          <mxGeometry relative="1" as="geometry" />
        </mxCell>
        <mxCell id="aqXjaQ3aQLY0OUibcdgp-12" value="Azure Application Gateway Ingress Controller" style="shape=image;verticalLabelPosition=bottom;labelBackgroundColor=#ffffff;verticalAlign=top;aspect=fixed;imageAspect=0;image=data:image/svg+xml,PHN2ZyB4bWxuczpkYz0iaHR0cDovL3B1cmwub3JnL2RjL2VsZW1lbnRzLzEuMS8iIHhtbG5zOmNjPSJodHRwOi8vY3JlYXRpdmVjb21tb25zLm9yZy9ucyMiIHhtbG5zOnJkZj0iaHR0cDovL3d3dy53My5vcmcvMTk5OS8wMi8yMi1yZGYtc3ludGF4LW5zIyIgeG1sbnM6c3ZnPSJodHRwOi8vd3d3LnczLm9yZy8yMDAwL3N2ZyIgeG1sbnM9Imh0dHA6Ly93d3cudzMub3JnLzIwMDAvc3ZnIiB4bWxuczpzb2RpcG9kaT0iaHR0cDovL3NvZGlwb2RpLnNvdXJjZWZvcmdlLm5ldC9EVEQvc29kaXBvZGktMC5kdGQiIHhtbG5zOmlua3NjYXBlPSJodHRwOi8vd3d3Lmlua3NjYXBlLm9yZy9uYW1lc3BhY2VzL2lua3NjYXBlIiB2ZXJzaW9uPSIxLjEiIGlkPSJzdmc0OTI1OSIgaW5rc2NhcGU6dmVyc2lvbj0iMC45Mi4zICgyNDA1NTQ2LCAyMDE4LTAzLTExKSIgc29kaXBvZGk6ZG9jbmFtZT0iYXBwbGljYXRpb25fZ2F0ZXdheS5zdmciIHg9IjBweCIgeT0iMHB4IiB2aWV3Qm94PSIwIDAgMTAwLjMxIDEwMC4xMSIgeG1sOnNwYWNlPSJwcmVzZXJ2ZSIgd2lkdGg9IjEwMC4zMSIgaGVpZ2h0PSIxMDAuMTEiPjxtZXRhZGF0YSBpZD0ibWV0YWRhdGExNjMzNSI+PHJkZjpSREY+PGNjOldvcmsgcmRmOmFib3V0PSIiPjxkYzpmb3JtYXQ+aW1hZ2Uvc3ZnK3htbDwvZGM6Zm9ybWF0PjxkYzp0eXBlIHJkZjpyZXNvdXJjZT0iaHR0cDovL3B1cmwub3JnL2RjL2RjbWl0eXBlL1N0aWxsSW1hZ2UiLz48ZGM6dGl0bGUvPjwvY2M6V29yaz48L3JkZjpSREY+PC9tZXRhZGF0YT48ZGVmcyBpZD0iZGVmczE2MzMzIi8+JiN4YTs8ZmlsdGVyIGlkPSJmaWx0ZXJfMiI+JiN4YTsJPGZlR2F1c3NpYW5CbHVyIGlkPSJmZUdhdXNzaWFuQmx1cjQ5MTg0IiBzdGREZXZpYXRpb249IjIiLz4mI3hhOzwvZmlsdGVyPiYjeGE7PHNvZGlwb2RpOm5hbWVkdmlldyBib3JkZXJjb2xvcj0iIzY2NjY2NiIgYm9yZGVyb3BhY2l0eT0iMSIgZml0LW1hcmdpbi1ib3R0b209IjAiIGZpdC1tYXJnaW4tbGVmdD0iMCIgZml0LW1hcmdpbi1yaWdodD0iMCIgZml0LW1hcmdpbi10b3A9IjAiIGdyaWR0b2xlcmFuY2U9IjEwIiBndWlkZXRvbGVyYW5jZT0iMTAiIGlkPSJuYW1lZHZpZXc0OTI2MSIgaW5rc2NhcGU6Y3VycmVudC1sYXllcj0ic3ZnNDkyNTkiIGlua3NjYXBlOmN4PSIzNy42OTE3NzEiIGlua3NjYXBlOmN5PSI0OC40MTY5MjYiIGlua3NjYXBlOnBhZ2VvcGFjaXR5PSIwIiBpbmtzY2FwZTpwYWdlc2hhZG93PSIyIiBpbmtzY2FwZTp3aW5kb3ctaGVpZ2h0PSIxMDE3IiBpbmtzY2FwZTp3aW5kb3ctbWF4aW1pemVkPSIxIiBpbmtzY2FwZTp3aW5kb3ctd2lkdGg9IjE5MjAiIGlua3NjYXBlOndpbmRvdy14PSItOCIgaW5rc2NhcGU6d2luZG93LXk9Ii04IiBpbmtzY2FwZTp6b29tPSI1LjIxOTMxOTgiIG9iamVjdHRvbGVyYW5jZT0iMTAiIHBhZ2Vjb2xvcj0iI2ZmZmZmZiIgc2hvd2dyaWQ9ImZhbHNlIj4mI3hhOwk8L3NvZGlwb2RpOm5hbWVkdmlldz4mI3hhOyYjeGE7PHBhdGggaWQ9InBhdGg0OTE5NyIgaW5rc2NhcGU6Y29ubmVjdG9yLWN1cnZhdHVyZT0iMCIgc3R5bGU9ImZpbGw6IzdmYmEwMCIgZD0ibSA1MC4wNSwxMDAuMTEgYyAtMi40LDAgLTQuOCwtMS4wMSAtNi42LC0yLjgxIEwgMi44LDU2LjY2IEMgMSw1NC44NiAwLDUyLjQ2IDAsNTAuMDUgYyAwLC0yLjQgMSwtNC44IDIuOCwtNi42IEwgNDMuNDUsMi44IEMgNDUuMjUsMSA0Ny42NSwwIDUwLjA1LDAgYyAyLjQxLDAgNC44MSwxIDYuNjEsMi44IEwgOTcuNSw0My42NSBjIDEuOCwxLjggMi44MSw0IDIuODEsNi42IDAsMi40MSAtMS4wMSw0LjgxIC0yLjgxLDYuNjEgTCA1Ni42Niw5Ny4zIGMgLTEuOCwxLjggLTQuMiwyLjgxIC02LjYxLDIuODEgeiIvPiYjeGE7JiN4YTs8cGF0aCBpZD0icGF0aDQ5MjA1IiBpbmtzY2FwZTpjb25uZWN0b3ItY3VydmF0dXJlPSIwIiBzdHlsZT0iZmlsbDojZmZmZmZmIiBkPSJtIDU5LjU0LDM3LjIgYyAtMi44LDIuMTQgLTYuMDksMy4xOSAtOS4zNywzLjE5IC00LjY0LDAgLTkuMjQsLTIuMDkgLTEyLjI3LC02LjA2IC01LjE5LC02Ljc3IC0zLjkxLC0xNi40NiAyLjg3LC0yMS42NSAyLjgsLTIuMTUgNi4xLC0zLjE4IDkuMzcsLTMuMTggNC42NSwwIDkuMjQsMi4wOSAxMi4yOCw2LjA2IDUuMTgsNi43OCAzLjg5LDE2LjQ2IC0yLjg4LDIxLjY0IHoiLz4mI3hhOyYjeGE7PHBhdGggaWQ9InBhdGg0OTIxMyIgaW5rc2NhcGU6Y29ubmVjdG9yLWN1cnZhdHVyZT0iMCIgc3R5bGU9ImZpbGw6I2ZmZmZmZjtmaWxsLW9wYWNpdHk6MC4xNSIgZD0iTSA1Ni42NiwyLjggQyA1NC44NiwxIDUyLjQ2LDAgNTAuMDUsMCBjIC0yLjQsMCAtNC44LDEgLTYuNiwyLjggTCAyLjgsNDMuNDUgQyAxLDQ1LjI1IDAsNDcuNjUgMCw1MC4wNSBjIDAsMi40MSAxLDQuODEgMi44LDYuNjEgTCAyNS44Myw3OS42OSA2OS4yNywxNS40MiBaIi8+JiN4YTsmI3hhOzxwYXRoIGlkPSJwYXRoNDkyMjEiIGlua3NjYXBlOmNvbm5lY3Rvci1jdXJ2YXR1cmU9IjAiIHN0eWxlPSJmaWxsOiNmZmZmZmYiIGQ9Ik0gNTAuMDUsOTEuMyA2My4yNyw3OC4wOCBIIDUzLjg2IFYgMzguMzQgaCAtNy44MSB2IDM5Ljc0IGggLTkuMjEgeiIvPiYjeGE7JiN4YTs8cGF0aCBpZD0icGF0aDQ5MjI5IiBpbmtzY2FwZTpjb25uZWN0b3ItY3VydmF0dXJlPSIwIiBzdHlsZT0iZmlsbDojZmZmZmZmIiBkPSJNIDc4Ljc0LDY3LjA0IFYgNDguMzUgbCAtNi41MSw2LjUxIC0xNi45MSwtMTYuOTEgLTUuNjYsNS42NyAxNi45MSwxNi45IC02LjUyLDYuNTIgeiIvPiYjeGE7JiN4YTs8cGF0aCBpZD0icGF0aDQ5MjM3IiBpbmtzY2FwZTpjb25uZWN0b3ItY3VydmF0dXJlPSIwIiBzdHlsZT0iZmlsbDojZmZmZmZmIiBkPSJNIDIxLjM5LDY3LjExIEggNDAuMDggTCAzMy41Niw2MC41OSA1MC45NSw0My4yMSA0NS4yOCwzNy41NSAyNy45LDU0LjkzIDIxLjM5LDQ4LjQyIFoiLz4mI3hhOyYjeGE7PHBhdGggaWQ9InBhdGg0OTI0NSIgaW5rc2NhcGU6Y29ubmVjdG9yLWN1cnZhdHVyZT0iMCIgc3R5bGU9ImZpbGw6IzU5YjRkOSIgZD0ibSA1OC4yOSwzNS41OCBjIC0yLjQyLDEuODUgLTUuMjgsMi43NiAtOC4xMiwyLjc2IC00LjAzLDAgLTguMDEsLTEuODEgLTEwLjY0LC01LjI2IC00LjUsLTUuODcgLTMuMzksLTE0LjI3IDIuNDksLTE4Ljc3IDIuNDMsLTEuODYgNS4yOSwtMi43NSA4LjEyLC0yLjc1IDQuMDMsMCA4LjAyLDEuOCAxMC42NSw1LjI1IDQuNSw1Ljg3IDMuMzgsMTQuMjcgLTIuNSwxOC43NyB6Ii8+JiN4YTsmI3hhOzxwYXRoIGlkPSJwYXRoNDkyNTMiIGlua3NjYXBlOmNvbm5lY3Rvci1jdXJ2YXR1cmU9IjAiIHN0eWxlPSJmaWxsOiNmZmZmZmYiIGQ9Im0gNTUuODMsMjcuMyBjIDAuOTgsMS4yNyAyLjc4LDEuNDkgNC4wNCwwLjU0IDAuMDcsLTAuMDUgMC4xMiwtMC4xMiAwLjE4LC0wLjE3IDEuMjksMC45MSAyLjE4LDEuNTEgMi42OSwxLjg1IDAuMTUsLTAuMzkgMC4yNSwtMC43NiAwLjM2LC0xLjE1IC0wLjUzLC0wLjM5IC0xLjI2LC0wLjk1IC0yLjMsLTEuNzkgMC4zNCwtMC45IDAuMjMsLTEuOTUgLTAuMzksLTIuNzggLTAuOSwtMS4xNSAtMi40OCwtMS40NSAtMy43MiwtMC43MyAtMS4zNiwtMS4yMyAtMi44NiwtMi42MyAtNC40NCwtNC4yIDQuOTEsLTIuNjQgOC40LC0yLjI1IDguNCwtMi4yNSAtMC41OSwtMC43NSAtMS4yNCwtMS40IC0xLjkzLC0xLjk4IC0yLjA3LC0wLjMyIC01LjI5LC0wLjI5IC04Ljk3LDEuNjcgViAxNi4zIGMgLTEuMjIsLTEuMjggLTIuNDcsLTIuNjUgLTMuNzQsLTQuMTMgLTAuNiwwLjIgLTEuMiwwLjQ0IC0xLjc3LDAuNzMgMC45MywxLjUzIDIuMiwzLjA3IDMuNjIsNC41OCAwLDAuMDEgMCwwLjAxIDAuMDEsMC4wMSAtMS4xOSwwLjgzIC0yLjUxLDEuOTQgLTMuNzIsMy4yMyAtMC4xNiwwLjE2IC0wLjMxLDAuMzMgLTAuNDUsMC40OSAtMC43MywtMC4xNSAtMS41LC0wLjEgLTIuMjEsMC4xNSAtMS4yMSwtMi42MSAtMS4xMiwtNC43MSAtMC45MiwtNS44IC0wLjUzLDAuNTUgLTEuMDIsMS4xMyAtMS40NSwxLjc1IC0wLjMxLDEuMyAtMC40LDMuMTYgMC41Myw1LjQxIC0xLjA4LDEuNDIgLTEuMTMsMy40MiAwLDQuOSAwLjEsMC4xMiAwLjIsMC4yNCAwLjMsMC4zNSAtMC40OSwxLjY4IC0wLjcxLDMuMyAtMC43OCw0LjY5IDAuMTIsMC4xNyAwLjEyLDAuMzEgMC4yNSwwLjQ4IDAuNjQsMC44MyAxLjQ1LDEuNTIgMi4yMywyLjE1IC0wLjEsLTEuNDcgMC4wMSwtMy42NSAwLjkyLC02LjA5IDAuNjMsMC4wNCAxLjI3LC0wLjA2IDEuODYsLTAuMzEgMC4zNSwwLjMxIDAuNywwLjYxIDEuMDksMC45MiAxLjMxLDEuMDQgMi42MiwxLjg1IDMuOSwyLjQ5IC0wLjA2LDAuNjUgMC4xLDEuMzIgMC41MiwxLjg4IDAuOSwxLjE3IDIuNTcsMS4zOSAzLjc0LDAuNDkgMC4yNCwtMC4xOCAwLjQzLC0wLjQxIDAuNTksLTAuNjUgMi4wOSwwLjQ3IDMuOTEsMC41NSA1LjI2LDAuNTUgMC4yLDAgMS4xNiwtMS4zMSAxLjcxLC0yLjExIC0wLjgyLDAuMTcgLTMuMjYsMC41IC02LjU5LC0wLjQ1IC0wLjA4LC0wLjM4IC0wLjIzLC0wLjc0IC0wLjQ4LC0xLjA3IC0wLjg0LC0xLjEgLTIuMzksLTEuMzUgLTMuNTQsLTAuNiAtMS4xNiwtMC42MyAtMi4zNywtMS40MiAtMy42MiwtMi40MSAtMC4yNiwtMC4yIC0wLjUsLTAuNCAtMC43MywtMC42IDAuNzYsLTEuMiAwLjg0LC0yLjc0IDAuMTcsLTQuMDQgMC4xNSwtMC4xNSAwLjMsLTAuMzEgMC40NiwtMC40NiAxLjI0LC0xLjE2IDIuNDEsLTIuMDggMy41LC0yLjgyIC0wLjA1LC0wLjA0IC0wLjA5LC0wLjA5IC0wLjEzLC0wLjEzIDAuMDQsMC4wNCAwLjA4LDAuMDggMC4xMywwLjEyIHYgMCBjIDEuNjcsMS41NSAzLjQ0LDMuMDIgNS4xMiw0LjMzIC0wLjQ0LDAuOTQgLTAuMzcsMi4wOCAwLjMsMi45NyB6Ii8+JiN4YTs8L3N2Zz4=;strokeColor=#A9C4EB;strokeWidth=2;" parent="C1qNaE6wFHK00PiSsJT4-1" vertex="1">
          <mxGeometry x="-81.5" y="1753.5" width="60" height="60" as="geometry" />
        </mxCell>
        <mxCell id="aqXjaQ3aQLY0OUibcdgp-13" style="edgeStyle=orthogonalEdgeStyle;rounded=0;orthogonalLoop=1;jettySize=auto;html=1;entryX=0;entryY=0.5;entryDx=0;entryDy=0;endArrow=none;endFill=0;dashed=1;" parent="C1qNaE6wFHK00PiSsJT4-1" source="aqXjaQ3aQLY0OUibcdgp-14" target="6tL6PodW8PY01BVz0MZv-0" edge="1">
          <mxGeometry relative="1" as="geometry" />
        </mxCell>
        <mxCell id="aqXjaQ3aQLY0OUibcdgp-14" value="WAF" style="aspect=fixed;html=1;points=[];align=center;image;fontSize=12;image=img/lib/mscae/Azure_Firewall.svg;strokeColor=#B3B3B3;strokeWidth=2;" parent="C1qNaE6wFHK00PiSsJT4-1" vertex="1">
          <mxGeometry x="-250" y="1516" width="60" height="60" as="geometry" />
        </mxCell>
        <mxCell id="vxT3_yCo5nmHfmARMHZa-2" style="edgeStyle=orthogonalEdgeStyle;rounded=0;orthogonalLoop=1;jettySize=auto;html=1;endArrow=classic;endFill=1;entryX=0.5;entryY=0;entryDx=0;entryDy=0;" parent="C1qNaE6wFHK00PiSsJT4-1" source="aqXjaQ3aQLY0OUibcdgp-19" target="6tL6PodW8PY01BVz0MZv-0" edge="1">
          <mxGeometry relative="1" as="geometry">
            <mxPoint x="-130" y="1550" as="targetPoint" />
          </mxGeometry>
        </mxCell>
        <mxCell id="aqXjaQ3aQLY0OUibcdgp-19" value="" style="ellipse;shape=cloud;whiteSpace=wrap;html=1;" parent="C1qNaE6wFHK00PiSsJT4-1" vertex="1">
          <mxGeometry x="-91.5" y="1350" width="80" height="60" as="geometry" />
        </mxCell>
        <mxCell id="ZF9I2wXu-rJIPe04N9b9-0" value="Azure Cosmos DB" style="aspect=fixed;html=1;points=[];align=center;image;fontSize=12;image=img/lib/azure2/databases/Azure_Cosmos_DB.svg;strokeColor=#B3B3B3;strokeWidth=2;" parent="C1qNaE6wFHK00PiSsJT4-1" vertex="1">
          <mxGeometry x="-140" y="2010" width="64" height="64" as="geometry" />
        </mxCell>
        <mxCell id="ZF9I2wXu-rJIPe04N9b9-2" value="Azure Cache for Redis" style="aspect=fixed;html=1;points=[];align=center;image;fontSize=12;image=img/lib/azure2/databases/Cache_Redis.svg;strokeColor=#B3B3B3;strokeWidth=2;" parent="C1qNaE6wFHK00PiSsJT4-1" vertex="1">
          <mxGeometry y="2022" width="64" height="52" as="geometry" />
        </mxCell>
        <mxCell id="ZF9I2wXu-rJIPe04N9b9-3" value="Azure Files Storage Account" style="aspect=fixed;html=1;points=[];align=center;image;fontSize=12;image=img/lib/azure2/storage/Storage_Accounts.svg;strokeColor=#B3B3B3;strokeWidth=2;" parent="C1qNaE6wFHK00PiSsJT4-1" vertex="1">
          <mxGeometry x="148.5" y="2022" width="65" height="52" as="geometry" />
        </mxCell>
        <mxCell id="ZF9I2wXu-rJIPe04N9b9-5" value="Gestión DevOps" style="text;html=1;strokeColor=#666666;fillColor=#f5f5f5;align=center;verticalAlign=middle;whiteSpace=wrap;rounded=0;fontColor=#333333;" parent="C1qNaE6wFHK00PiSsJT4-1" vertex="1">
          <mxGeometry x="-770" y="1760" width="100" height="20" as="geometry" />
        </mxCell>
        <mxCell id="ZF9I2wXu-rJIPe04N9b9-6" value="Gestión de Datos" style="text;html=1;strokeColor=#666666;fillColor=#f5f5f5;align=center;verticalAlign=middle;whiteSpace=wrap;rounded=0;fontColor=#333333;" parent="C1qNaE6wFHK00PiSsJT4-1" vertex="1">
          <mxGeometry x="-350" y="1960" width="100" height="20" as="geometry" />
        </mxCell>
        <mxCell id="fsaQz3QcmKmidU3kGP3J-0" style="edgeStyle=orthogonalEdgeStyle;rounded=0;orthogonalLoop=1;jettySize=auto;html=1;endArrow=classic;endFill=1;" parent="C1qNaE6wFHK00PiSsJT4-1" source="qhifeVvUYtG9xt0VQxrg-1" target="aqXjaQ3aQLY0OUibcdgp-19" edge="1">
          <mxGeometry relative="1" as="geometry" />
        </mxCell>
        <mxCell id="qhifeVvUYtG9xt0VQxrg-1" value="" style="shape=image;verticalLabelPosition=bottom;labelBackgroundColor=#ffffff;verticalAlign=top;aspect=fixed;imageAspect=0;image=data:image/svg+xml,PHN2ZyB4bWxuczpjYz0iaHR0cDovL2NyZWF0aXZlY29tbW9ucy5vcmcvbnMjIiB4bWxuczpkYz0iaHR0cDovL3B1cmwub3JnL2RjL2VsZW1lbnRzLzEuMS8iIHhtbG5zOmlua3NjYXBlPSJodHRwOi8vd3d3Lmlua3NjYXBlLm9yZy9uYW1lc3BhY2VzL2lua3NjYXBlIiB4bWxuczpyZGY9Imh0dHA6Ly93d3cudzMub3JnLzE5OTkvMDIvMjItcmRmLXN5bnRheC1ucyMiIHhtbG5zOnNvZGlwb2RpPSJodHRwOi8vc29kaXBvZGkuc291cmNlZm9yZ2UubmV0L0RURC9zb2RpcG9kaS0wLmR0ZCIgeG1sbnM6c3ZnPSJodHRwOi8vd3d3LnczLm9yZy8yMDAwL3N2ZyIgeG1sbnM9Imh0dHA6Ly93d3cudzMub3JnLzIwMDAvc3ZnIiB4bWxuczp4bGluaz0iaHR0cDovL3d3dy53My5vcmcvMTk5OS94bGluayIgdmVyc2lvbj0iMS4xIiBpZD0ic3ZnMTU5MjY3IiBpbmtzY2FwZTp2ZXJzaW9uPSIwLjkyLjMgKDI0MDU1NDYsIDIwMTgtMDMtMTEpIiBzb2RpcG9kaTpkb2NuYW1lPSJkZXZlbG9waW5nLnN2ZyIgeD0iMHB4IiB5PSIwcHgiIHZpZXdCb3g9IjAgMCAxMDcuMTkgNjcuMjQiIHN0eWxlPSJlbmFibGUtYmFja2dyb3VuZDpuZXcgMCAwIDEwNy4xOSA2Ny4yNDsiIHhtbDpzcGFjZT0icHJlc2VydmUiPiYjeGE7PHNvZGlwb2RpOm5hbWVkdmlldyBib3JkZXJjb2xvcj0iIzY2NjY2NiIgYm9yZGVyb3BhY2l0eT0iMSIgZml0LW1hcmdpbi1ib3R0b209IjAiIGZpdC1tYXJnaW4tbGVmdD0iMCIgZml0LW1hcmdpbi1yaWdodD0iMCIgZml0LW1hcmdpbi10b3A9IjAiIGdyaWR0b2xlcmFuY2U9IjEwIiBndWlkZXRvbGVyYW5jZT0iMTAiIGlkPSJuYW1lZHZpZXcxNTkyNjkiIGlua3NjYXBlOmN1cnJlbnQtbGF5ZXI9InN2ZzE1OTI2NyIgaW5rc2NhcGU6Y3g9IjcxLjQ2MjIxNiIgaW5rc2NhcGU6Y3k9IjQ0LjgzMTI0MyIgaW5rc2NhcGU6cGFnZW9wYWNpdHk9IjAiIGlua3NjYXBlOnBhZ2VzaGFkb3c9IjIiIGlua3NjYXBlOndpbmRvdy1oZWlnaHQ9IjEwMTciIGlua3NjYXBlOndpbmRvdy1tYXhpbWl6ZWQ9IjEiIGlua3NjYXBlOndpbmRvdy13aWR0aD0iMTkyMCIgaW5rc2NhcGU6d2luZG93LXg9Ii04IiBpbmtzY2FwZTp3aW5kb3cteT0iLTgiIGlua3NjYXBlOnpvb209IjkuMzI5ODgwOCIgb2JqZWN0dG9sZXJhbmNlPSIxMCIgcGFnZWNvbG9yPSIjZmZmZmZmIiBzaG93Z3JpZD0iZmFsc2UiPiYjeGE7CTwvc29kaXBvZGk6bmFtZWR2aWV3PiYjeGE7PGcgaWQ9ImcxNTkyNjUiIHRyYW5zZm9ybT0idHJhbnNsYXRlKC0xLjIyOTE4MDUsLTEuMjMxMDcpIj4mI3hhOwk8dGl0bGUgaWQ9InRpdGxlMTU5MDE1Ij5QYWdlLTE8L3RpdGxlPiYjeGE7CTxnIGlkPSJncm91cDE0MTYtMSIgdHJhbnNmb3JtPSJ0cmFuc2xhdGUoMS4yMjg3OCwtMS4yMjg3OCkiPiYjeGE7CQk8dGl0bGUgaWQ9InRpdGxlMTU5MDE3Ij5EZXZlbG9waW5nPC90aXRsZT4mI3hhOwkJPGcgaWQ9InNoYXBlMTQxNy0yIiB0cmFuc2Zvcm09InRyYW5zbGF0ZSgxMC43OTk3LC0zLjU3MDE1KSI+JiN4YTsJCQk8dGl0bGUgaWQ9InRpdGxlMTU5MDE5Ij5yZWN0NDEwMi41NDA8L3RpdGxlPiYjeGE7CQkJPHBhdGggaWQ9InBhdGgxNTkwMjEiIGlua3NjYXBlOmNvbm5lY3Rvci1jdXJ2YXR1cmU9IjAiIHN0eWxlPSJmaWxsOiMyMzFGMjA7IiBkPSJNMCw2Ny4zMmMwLDEuMzEsMS4wNywyLjM4LDIuMzgsMi4zOGg4MC4zMyAgICAgYzEuMzEsMCwyLjM4LTEuMDcsMi4zOC0yLjM4VjguNDFjMC0xLjMxLTEuMDctMi4zOC0yLjM4LTIuMzhIMi4zOEMxLjA3LDYuMDMsMCw3LjEsMCw4LjQxVjY3LjMyeiIvPiYjeGE7CQk8L2c+JiN4YTsJCTxnIGlkPSJzaGFwZTE0MTgtNCI+JiN4YTsJCQk8dGl0bGUgaWQ9InRpdGxlMTU5MDI0Ij5wYXRoNDEwNC41NDE8L3RpdGxlPiYjeGE7CQkJPHBhdGggaWQ9InBhdGgxNTkwMjYiIGlua3NjYXBlOmNvbm5lY3Rvci1jdXJ2YXR1cmU9IjAiIHN0eWxlPSJmaWxsOiMxQTFBMUE7IiBkPSJNMTAzLjQ4LDY5LjdIMy44OEMwLjU1LDY5LjcsMCw2Ni4xMywwLDY2LjEzICAgICBoMTA3LjE1QzEwNy4xNSw2Ni4xMywxMDYuMDcsNjkuNywxMDMuNDgsNjkuN3oiLz4mI3hhOwkJPC9nPiYjeGE7CQk8ZyBpZD0ic2hhcGUxNDE5LTYiIHRyYW5zZm9ybT0idHJhbnNsYXRlKDAuMDQxNjUxOCwtMy41NzAxNSkiPiYjeGE7CQkJPHRpdGxlIGlkPSJ0aXRsZTE1OTAyOSI+cG9seWdvbjQxMDYuNTQyPC90aXRsZT4mI3hhOwkJCTxwYXRoIGlkPSJwYXRoMTU5MDMxIiBpbmtzY2FwZTpjb25uZWN0b3ItY3VydmF0dXJlPSIwIiBzdHlsZT0iZmlsbDojODA4MDgwOyIgZD0iTTEwNy4xNSw2OS43SDBsMTAuOTQtMy41N0g5NS44TDEwNy4xNSw2OS43eiIvPiYjeGE7CQk8L2c+JiN4YTsJCTxnIGlkPSJzaGFwZTE0MjAtOCIgdHJhbnNmb3JtPSJ0cmFuc2xhdGUoMTMuNzI3MiwtMTEuOTAwNSkiPiYjeGE7CQkJPHRpdGxlIGlkPSJ0aXRsZTE1OTAzNCI+cmVjdDQxMDguNTQzPC90aXRsZT4mI3hhOwkJCTxyZWN0IGlkPSJyZWN0MTU5MDM2IiB4PSIwIiB5PSIxNy4zMyIgc3R5bGU9ImZpbGw6IzQxNDA0MjsiIHdpZHRoPSI3OS4xNCIgaGVpZ2h0PSI1Mi4zNiIvPiYjeGE7CQk8L2c+JiN4YTsJCTxnIGlkPSJzaGFwZTE0MjEtMTAiIHRyYW5zZm9ybT0idHJhbnNsYXRlKDIxLjQ2MjYsLTYwLjY5MjYpIj4mI3hhOwkJCTx0aXRsZSBpZD0idGl0bGUxNTkwMzkiPnJlY3Q0MTEwLjU0NDwvdGl0bGU+JiN4YTsJCQk8cmVjdCBpZD0icmVjdDE1OTA0MSIgeD0iMCIgeT0iNjguNTEiIHN0eWxlPSJmaWxsOiM2RDZFNzE7IiB3aWR0aD0iMS4xOSIgaGVpZ2h0PSIxLjE5Ii8+JiN4YTsJCTwvZz4mI3hhOwkJPGcgaWQ9InNoYXBlMTQyMi0xMiIgdHJhbnNmb3JtPSJ0cmFuc2xhdGUoMjMuMjQ3NiwtNjAuNjkyNikiPiYjeGE7CQkJPHRpdGxlIGlkPSJ0aXRsZTE1OTA0NCI+cmVjdDQxMTIuNTQ1PC90aXRsZT4mI3hhOwkJCTxyZWN0IGlkPSJyZWN0MTU5MDQ2IiB4PSIwIiB5PSI2OC41MSIgc3R5bGU9ImZpbGw6IzE3NzJCODsiIHdpZHRoPSIxLjc5IiBoZWlnaHQ9IjEuMTkiLz4mI3hhOwkJPC9nPiYjeGE7CQk8ZyBpZD0ic2hhcGUxNDIzLTE0IiB0cmFuc2Zvcm09InRyYW5zbGF0ZSgyNi4yMjI4LC02MC42OTI2KSI+JiN4YTsJCQk8dGl0bGUgaWQ9InRpdGxlMTU5MDQ5Ij5yZWN0NDExNC41NDY8L3RpdGxlPiYjeGE7CQkJPHJlY3QgaWQ9InJlY3QxNTkwNTEiIHg9IjAiIHk9IjY4LjUxIiBzdHlsZT0iZmlsbDojNkQ2RTcxOyIgd2lkdGg9IjExLjkiIGhlaWdodD0iMS4xOSIvPiYjeGE7CQk8L2c+JiN4YTsJCTxnIGlkPSJzaGFwZTE0MjQtMTYiIHRyYW5zZm9ybT0idHJhbnNsYXRlKDIxLjQ2MjYsLTU4LjMxMjUpIj4mI3hhOwkJCTx0aXRsZSBpZD0idGl0bGUxNTkwNTQiPnJlY3Q0MTE2LjU0NzwvdGl0bGU+JiN4YTsJCQk8cmVjdCBpZD0icmVjdDE1OTA1NiIgeD0iMCIgeT0iNjguNTEiIHN0eWxlPSJmaWxsOiM2RDZFNzE7IiB3aWR0aD0iMS4xOSIgaGVpZ2h0PSIxLjE5Ii8+JiN4YTsJCTwvZz4mI3hhOwkJPGcgaWQ9InNoYXBlMTQyNS0xOCIgdHJhbnNmb3JtPSJ0cmFuc2xhdGUoMjMuMjQ3NiwtNTguMzEyNSkiPiYjeGE7CQkJPHRpdGxlIGlkPSJ0aXRsZTE1OTA1OSI+cmVjdDQxMTguNTQ4PC90aXRsZT4mI3hhOwkJCTxyZWN0IGlkPSJyZWN0MTU5MDYxIiB4PSIwIiB5PSI2OC41MSIgc3R5bGU9ImZpbGw6IzE3NzJCODsiIHdpZHRoPSIxLjc5IiBoZWlnaHQ9IjEuMTkiLz4mI3hhOwkJPC9nPiYjeGE7CQk8ZyBpZD0ic2hhcGUxNDI2LTIwIiB0cmFuc2Zvcm09InRyYW5zbGF0ZSgyNi4yMjI4LC01OC4zMTI1KSI+JiN4YTsJCQk8dGl0bGUgaWQ9InRpdGxlMTU5MDY0Ij5yZWN0NDEyMC41NDk8L3RpdGxlPiYjeGE7CQkJPHJlY3QgaWQ9InJlY3QxNTkwNjYiIHg9IjAiIHk9IjY4LjUxIiBzdHlsZT0iZmlsbDojNkQ2RTcxOyIgd2lkdGg9IjE3Ljg1IiBoZWlnaHQ9IjEuMTkiLz4mI3hhOwkJPC9nPiYjeGE7CQk8ZyBpZD0ic2hhcGUxNDI3LTIyIiB0cmFuc2Zvcm09InRyYW5zbGF0ZSgyMS40NjI2LC01NS45MzI0KSI+JiN4YTsJCQk8dGl0bGUgaWQ9InRpdGxlMTU5MDY5Ij5yZWN0NDEyMi41NTA8L3RpdGxlPiYjeGE7CQkJPHJlY3QgaWQ9InJlY3QxNTkwNzEiIHg9IjAiIHk9IjY4LjUxIiBzdHlsZT0iZmlsbDojNkQ2RTcxOyIgd2lkdGg9IjEuMTkiIGhlaWdodD0iMS4xOSIvPiYjeGE7CQk8L2c+JiN4YTsJCTxnIGlkPSJzaGFwZTE0MjgtMjQiIHRyYW5zZm9ybT0idHJhbnNsYXRlKDIzLjI0NzYsLTU1LjkzMjQpIj4mI3hhOwkJCTx0aXRsZSBpZD0idGl0bGUxNTkwNzQiPnJlY3Q0MTI0LjU1MTwvdGl0bGU+JiN4YTsJCQk8cmVjdCBpZD0icmVjdDE1OTA3NiIgeD0iMCIgeT0iNjguNTEiIHN0eWxlPSJmaWxsOiMxNzcyQjg7IiB3aWR0aD0iMS43OSIgaGVpZ2h0PSIxLjE5Ii8+JiN4YTsJCTwvZz4mI3hhOwkJPGcgaWQ9InNoYXBlMTQyOS0yNiIgdHJhbnNmb3JtPSJ0cmFuc2xhdGUoNTcuMTY0MSwtMjguNTYxMikiPiYjeGE7CQkJPHRpdGxlIGlkPSJ0aXRsZTE1OTA3OSI+cG9seWdvbjQxMjYuNTUyPC90aXRsZT4mI3hhOwkJCTxwYXRoIGlkPSJwYXRoMTU5MDgxIiBpbmtzY2FwZTpjb25uZWN0b3ItY3VydmF0dXJlPSIwIiBzdHlsZT0iZmlsbDojMjMxRjIwO2ZpbGwtb3BhY2l0eTowLjM0OyIgZD0iTTM1LjcsMzMuOTlWNjkuN0wwLDMzLjk5ICAgICBIMzUuN3oiLz4mI3hhOwkJPC9nPiYjeGE7CQk8ZyBpZD0ic2hhcGUxNDMwLTI4IiB0cmFuc2Zvcm09InRyYW5zbGF0ZSg2NC44OTk0LC00Ni40MTIpIj4mI3hhOwkJCTx0aXRsZSBpZD0idGl0bGUxNTkwODQiPnJlY3Q0MTI4LjU1MzwvdGl0bGU+JiN4YTsJCQk8cmVjdCBpZD0icmVjdDE1OTA4NiIgeD0iMCIgeT0iNjguNTEiIHN0eWxlPSJmaWxsOiMxNzcyQjg7IiB3aWR0aD0iNS45NSIgaGVpZ2h0PSIxLjE5Ii8+JiN4YTsJCTwvZz4mI3hhOwkJPGcgaWQ9InNoYXBlMTQzMS0zMCIgdHJhbnNmb3JtPSJ0cmFuc2xhdGUoMjYuMjIyOCwtNTUuOTMyNCkiPiYjeGE7CQkJPHRpdGxlIGlkPSJ0aXRsZTE1OTA4OSI+cmVjdDQxMzAuNTU0PC90aXRsZT4mI3hhOwkJCTxyZWN0IGlkPSJyZWN0MTU5MDkxIiB4PSIwIiB5PSI2OC41MSIgc3R5bGU9ImZpbGw6IzZENkU3MTsiIHdpZHRoPSIxMC43MSIgaGVpZ2h0PSIxLjE5Ii8+JiN4YTsJCTwvZz4mI3hhOwkJPGcgaWQ9InNoYXBlMTQzMi0zMiIgdHJhbnNmb3JtPSJ0cmFuc2xhdGUoMjEuNDYyNiwtNTMuNTUyMykiPiYjeGE7CQkJPHRpdGxlIGlkPSJ0aXRsZTE1OTA5NCI+cmVjdDQxMzIuNTU1PC90aXRsZT4mI3hhOwkJCTxyZWN0IGlkPSJyZWN0MTU5MDk2IiB4PSIwIiB5PSI2OC41MSIgc3R5bGU9ImZpbGw6IzZENkU3MTsiIHdpZHRoPSIxLjE5IiBoZWlnaHQ9IjEuMTkiLz4mI3hhOwkJPC9nPiYjeGE7CQk8ZyBpZD0ic2hhcGUxNDMzLTM0IiB0cmFuc2Zvcm09InRyYW5zbGF0ZSgyMy4yNDc2LC01My41NTIzKSI+JiN4YTsJCQk8dGl0bGUgaWQ9InRpdGxlMTU5MDk5Ij5yZWN0NDEzNC41NTY8L3RpdGxlPiYjeGE7CQkJPHJlY3QgaWQ9InJlY3QxNTkxMDEiIHg9IjAiIHk9IjY4LjUxIiBzdHlsZT0iZmlsbDojMTc3MkI4OyIgd2lkdGg9IjEuNzkiIGhlaWdodD0iMS4xOSIvPiYjeGE7CQk8L2c+JiN4YTsJCTxnIGlkPSJzaGFwZTE0MzQtMzYiIHRyYW5zZm9ybT0idHJhbnNsYXRlKDI2LjIyMjgsLTUzLjU1MjMpIj4mI3hhOwkJCTx0aXRsZSBpZD0idGl0bGUxNTkxMDQiPnJlY3Q0MTM2LjU1NzwvdGl0bGU+JiN4YTsJCQk8cmVjdCBpZD0icmVjdDE1OTEwNiIgeD0iMCIgeT0iNjguNTEiIHN0eWxlPSJmaWxsOiM2RDZFNzE7IiB3aWR0aD0iMTEuOSIgaGVpZ2h0PSIxLjE5Ii8+JiN4YTsJCTwvZz4mI3hhOwkJPGcgaWQ9InNoYXBlMTQzNS0zOCIgdHJhbnNmb3JtPSJ0cmFuc2xhdGUoMjEuNDYyNiwtNTEuMTcyMikiPiYjeGE7CQkJPHRpdGxlIGlkPSJ0aXRsZTE1OTEwOSI+cmVjdDQxMzguNTU4PC90aXRsZT4mI3hhOwkJCTxyZWN0IGlkPSJyZWN0MTU5MTExIiB4PSIwIiB5PSI2OC41MSIgc3R5bGU9ImZpbGw6IzZENkU3MTsiIHdpZHRoPSIxLjE5IiBoZWlnaHQ9IjEuMTkiLz4mI3hhOwkJPC9nPiYjeGE7CQk8ZyBpZD0ic2hhcGUxNDM2LTQwIiB0cmFuc2Zvcm09InRyYW5zbGF0ZSgyMy44NDI3LC01MS4xNzIyKSI+JiN4YTsJCQk8dGl0bGUgaWQ9InRpdGxlMTU5MTE0Ij5yZWN0NDE0MC41NTk8L3RpdGxlPiYjeGE7CQkJPHJlY3QgaWQ9InJlY3QxNTkxMTYiIHg9IjAiIHk9IjY4LjUxIiBzdHlsZT0iZmlsbDojRjFGMkYyOyIgd2lkdGg9IjIxLjQyIiBoZWlnaHQ9IjEuMTkiLz4mI3hhOwkJPC9nPiYjeGE7CQk8ZyBpZD0ic2hhcGUxNDM3LTQyIiB0cmFuc2Zvcm09InRyYW5zbGF0ZSgyMy44NDI3LC00OC43OTIxKSI+JiN4YTsJCQk8dGl0bGUgaWQ9InRpdGxlMTU5MTE5Ij5yZWN0NDE0Mi41NjA8L3RpdGxlPiYjeGE7CQkJPHJlY3QgaWQ9InJlY3QxNTkxMjEiIHg9IjAiIHk9IjY4LjUxIiBzdHlsZT0iZmlsbDojRjFGMkYyOyIgd2lkdGg9IjIxLjQyIiBoZWlnaHQ9IjEuMTkiLz4mI3hhOwkJPC9nPiYjeGE7CQk8ZyBpZD0ic2hhcGUxNDM4LTQ0IiB0cmFuc2Zvcm09InRyYW5zbGF0ZSg0Ni40NTM2LC01MS4xNzIyKSI+JiN4YTsJCQk8dGl0bGUgaWQ9InRpdGxlMTU5MTI0Ij5yZWN0NDE0NC41NjE8L3RpdGxlPiYjeGE7CQkJPHJlY3QgaWQ9InJlY3QxNTkxMjYiIHg9IjAiIHk9IjY4LjUxIiBzdHlsZT0iZmlsbDojRjFGMkYyOyIgd2lkdGg9IjE3Ljg1IiBoZWlnaHQ9IjEuMTkiLz4mI3hhOwkJPC9nPiYjeGE7CQk8ZyBpZD0ic2hhcGUxNDM5LTQ2IiB0cmFuc2Zvcm09InRyYW5zbGF0ZSgyMy44NDI3LC00Ni40MTIpIj4mI3hhOwkJCTx0aXRsZSBpZD0idGl0bGUxNTkxMjkiPnJlY3Q0MTQ2LjU2MjwvdGl0bGU+JiN4YTsJCQk8cmVjdCBpZD0icmVjdDE1OTEzMSIgeD0iMCIgeT0iNjguNTEiIHN0eWxlPSJmaWxsOiNGMUYyRjI7IiB3aWR0aD0iMTQuMjgiIGhlaWdodD0iMS4xOSIvPiYjeGE7CQk8L2c+JiN4YTsJCTxnIGlkPSJzaGFwZTE0NDAtNDgiIHRyYW5zZm9ybT0idHJhbnNsYXRlKDM5LjMxMzMsLTQ2LjQxMikiPiYjeGE7CQkJPHRpdGxlIGlkPSJ0aXRsZTE1OTEzNCI+cmVjdDQxNDguNTYzPC90aXRsZT4mI3hhOwkJCTxyZWN0IGlkPSJyZWN0MTU5MTM2IiB4PSIwIiB5PSI2OC41MSIgc3R5bGU9ImZpbGw6I0ZGQjkwMDsiIHdpZHRoPSIyNC40IiBoZWlnaHQ9IjEuMTkiLz4mI3hhOwkJPC9nPiYjeGE7CQk8ZyBpZD0ic2hhcGUxNDQxLTUwIiB0cmFuc2Zvcm09InRyYW5zbGF0ZSg0NS44NTg2LC00NC4wMzE5KSI+JiN4YTsJCQk8dGl0bGUgaWQ9InRpdGxlMTU5MTM5Ij5yZWN0NDE1MC41NjQ8L3RpdGxlPiYjeGE7CQkJPHJlY3QgaWQ9InJlY3QxNTkxNDEiIHg9IjAiIHk9IjY4LjUxIiBzdHlsZT0iZmlsbDojRkZCOTAwOyIgd2lkdGg9IjI0LjQiIGhlaWdodD0iMS4xOSIvPiYjeGE7CQk8L2c+JiN4YTsJCTxnIGlkPSJzaGFwZTE0NDItNTIiIHRyYW5zZm9ybT0idHJhbnNsYXRlKDcxLjQ0NDcsLTQ0LjAzMTkpIj4mI3hhOwkJCTx0aXRsZSBpZD0idGl0bGUxNTkxNDQiPnJlY3Q0MTUyLjU2NTwvdGl0bGU+JiN4YTsJCQk8cmVjdCBpZD0icmVjdDE1OTE0NiIgeD0iMCIgeT0iNjguNTEiIHN0eWxlPSJmaWxsOiNGRkI5MDA7IiB3aWR0aD0iMTcuMjYiIGhlaWdodD0iMS4xOSIvPiYjeGE7CQk8L2c+JiN4YTsJCTxnIGlkPSJzaGFwZTE0NDMtNTQiIHRyYW5zZm9ybT0idHJhbnNsYXRlKDIzLjg0MjcsLTQ0LjAzMTkpIj4mI3hhOwkJCTx0aXRsZSBpZD0idGl0bGUxNTkxNDkiPnJlY3Q0MTU0LjU2NjwvdGl0bGU+JiN4YTsJCQk8cmVjdCBpZD0icmVjdDE1OTE1MSIgeD0iMCIgeT0iNjguNTEiIHN0eWxlPSJmaWxsOiNGMUYyRjI7IiB3aWR0aD0iMjAuNzciIGhlaWdodD0iMS4xOSIvPiYjeGE7CQk8L2c+JiN4YTsJCTxnIGlkPSJzaGFwZTE0NDQtNTYiIHRyYW5zZm9ybT0idHJhbnNsYXRlKDIzLjg0MjcsLTQwLjQ2MTcpIj4mI3hhOwkJCTx0aXRsZSBpZD0idGl0bGUxNTkxNTQiPnJlY3Q0MTU2LjU2NzwvdGl0bGU+JiN4YTsJCQk8cmVjdCBpZD0icmVjdDE1OTE1NiIgeD0iMCIgeT0iNjguNTEiIHN0eWxlPSJmaWxsOiM2RDZFNzE7IiB3aWR0aD0iNS4zNiIgaGVpZ2h0PSIxLjE5Ii8+JiN4YTsJCTwvZz4mI3hhOwkJPGcgaWQ9InNoYXBlMTQ0NS01OCIgdHJhbnNmb3JtPSJ0cmFuc2xhdGUoMjMuODQyNywtMzguMDgxNikiPiYjeGE7CQkJPHRpdGxlIGlkPSJ0aXRsZTE1OTE1OSI+cmVjdDQxNTguNTY4PC90aXRsZT4mI3hhOwkJCTxyZWN0IGlkPSJyZWN0MTU5MTYxIiB4PSIwIiB5PSI2OC41MSIgc3R5bGU9ImZpbGw6IzZENkU3MTsiIHdpZHRoPSIxMS45IiBoZWlnaHQ9IjEuMTkiLz4mI3hhOwkJPC9nPiYjeGE7CQk8ZyBpZD0ic2hhcGUxNDQ2LTYwIiB0cmFuc2Zvcm09InRyYW5zbGF0ZSgyMy44NDI3LC0zNS43MDE1KSI+JiN4YTsJCQk8dGl0bGUgaWQ9InRpdGxlMTU5MTY0Ij5yZWN0NDE2MC41Njk8L3RpdGxlPiYjeGE7CQkJPHJlY3QgaWQ9InJlY3QxNTkxNjYiIHg9IjAiIHk9IjY4LjUxIiBzdHlsZT0iZmlsbDojMDA4MjcyOyIgd2lkdGg9IjIxLjQyIiBoZWlnaHQ9IjEuMTkiLz4mI3hhOwkJPC9nPiYjeGE7CQk8ZyBpZD0ic2hhcGUxNDQ3LTYyIiB0cmFuc2Zvcm09InRyYW5zbGF0ZSgyMy44NDI3LC0zMy4zMjE0KSI+JiN4YTsJCQk8dGl0bGUgaWQ9InRpdGxlMTU5MTY5Ij5yZWN0NDE2Mi41NzA8L3RpdGxlPiYjeGE7CQkJPHJlY3QgaWQ9InJlY3QxNTkxNzEiIHg9IjAiIHk9IjY4LjUxIiBzdHlsZT0iZmlsbDojMDA4MjcyOyIgd2lkdGg9IjIxLjQyIiBoZWlnaHQ9IjEuMTkiLz4mI3hhOwkJPC9nPiYjeGE7CQk8ZyBpZD0ic2hhcGUxNDQ4LTY0IiB0cmFuc2Zvcm09InRyYW5zbGF0ZSg0Ni40NTM2LC0zNS43MDE1KSI+JiN4YTsJCQk8dGl0bGUgaWQ9InRpdGxlMTU5MTc0Ij5yZWN0NDE2NC41NzE8L3RpdGxlPiYjeGE7CQkJPHJlY3QgaWQ9InJlY3QxNTkxNzYiIHg9IjAiIHk9IjY4LjUxIiBzdHlsZT0iZmlsbDojMDA4MjcyOyIgd2lkdGg9IjE3Ljg1IiBoZWlnaHQ9IjEuMTkiLz4mI3hhOwkJPC9nPiYjeGE7CQk8ZyBpZD0ic2hhcGUxNDQ5LTY2IiB0cmFuc2Zvcm09InRyYW5zbGF0ZSgyMy44NDI3LC0zMC45NDEzKSI+JiN4YTsJCQk8dGl0bGUgaWQ9InRpdGxlMTU5MTc5Ij5yZWN0NDE2Ni41NzI8L3RpdGxlPiYjeGE7CQkJPHJlY3QgaWQ9InJlY3QxNTkxODEiIHg9IjAiIHk9IjY4LjUxIiBzdHlsZT0iZmlsbDojNkQ2RTcxOyIgd2lkdGg9IjE0LjI4IiBoZWlnaHQ9IjEuMTkiLz4mI3hhOwkJPC9nPiYjeGE7CQk8ZyBpZD0ic2hhcGUxNDUwLTY4IiB0cmFuc2Zvcm09InRyYW5zbGF0ZSgzOS4zMTMzLC0zMC45NDEzKSI+JiN4YTsJCQk8dGl0bGUgaWQ9InRpdGxlMTU5MTg0Ij5yZWN0NDE2OC41NzM8L3RpdGxlPiYjeGE7CQkJPHJlY3QgaWQ9InJlY3QxNTkxODYiIHg9IjAiIHk9IjY4LjUxIiBzdHlsZT0iZmlsbDojNkQ2RTcxOyIgd2lkdGg9IjI0LjQiIGhlaWdodD0iMS4xOSIvPiYjeGE7CQk8L2c+JiN4YTsJCTxnIGlkPSJzaGFwZTE0NTEtNzAiIHRyYW5zZm9ybT0idHJhbnNsYXRlKDQ1Ljg1ODYsLTI4LjU2MTIpIj4mI3hhOwkJCTx0aXRsZSBpZD0idGl0bGUxNTkxODkiPnJlY3Q0MTcwLjU3NDwvdGl0bGU+JiN4YTsJCQk8cmVjdCBpZD0icmVjdDE1OTE5MSIgeD0iMCIgeT0iNjguNTEiIHN0eWxlPSJmaWxsOiM2RDZFNzE7IiB3aWR0aD0iMjQuNCIgaGVpZ2h0PSIxLjE5Ii8+JiN4YTsJCTwvZz4mI3hhOwkJPGcgaWQ9InNoYXBlMTQ1Mi03MiIgdHJhbnNmb3JtPSJ0cmFuc2xhdGUoMjMuOTAyMiwtMjguNTYxMikiPiYjeGE7CQkJPHRpdGxlIGlkPSJ0aXRsZTE1OTE5NCI+cmVjdDQxNzIuNTc1PC90aXRsZT4mI3hhOwkJCTxyZWN0IGlkPSJyZWN0MTU5MTk2IiB4PSIwIiB5PSI2OC41MSIgc3R5bGU9ImZpbGw6IzZENkU3MTsiIHdpZHRoPSIyMC43NyIgaGVpZ2h0PSIxLjE5Ii8+JiN4YTsJCTwvZz4mI3hhOwkJPGcgaWQ9InNoYXBlMTQ1My03NCIgdHJhbnNmb3JtPSJ0cmFuc2xhdGUoMjMuODQyNywtMjYuMTgxMSkiPiYjeGE7CQkJPHRpdGxlIGlkPSJ0aXRsZTE1OTE5OSI+cmVjdDQxNzQuNTc2PC90aXRsZT4mI3hhOwkJCTxyZWN0IGlkPSJyZWN0MTU5MjAxIiB4PSIwIiB5PSI2OC41MSIgc3R5bGU9ImZpbGw6IzZENkU3MTsiIHdpZHRoPSIxMS45IiBoZWlnaHQ9IjEuMTkiLz4mI3hhOwkJPC9nPiYjeGE7CQk8ZyBpZD0ic2hhcGUxNDU0LTc2IiB0cmFuc2Zvcm09InRyYW5zbGF0ZSgyMS40NjI2LC0yMy44MDEpIj4mI3hhOwkJCTx0aXRsZSBpZD0idGl0bGUxNTkyMDQiPnJlY3Q0MTc2LjU3NzwvdGl0bGU+JiN4YTsJCQk8cmVjdCBpZD0icmVjdDE1OTIwNiIgeD0iMCIgeT0iNjguNTEiIHN0eWxlPSJmaWxsOiM2RDZFNzE7IiB3aWR0aD0iMS4xOSIgaGVpZ2h0PSIxLjE5Ii8+JiN4YTsJCTwvZz4mI3hhOwkJPGcgaWQ9InNoYXBlMTQ1NS03OCIgdHJhbnNmb3JtPSJ0cmFuc2xhdGUoMjMuODQyNywtMjMuODAxKSI+JiN4YTsJCQk8dGl0bGUgaWQ9InRpdGxlMTU5MjA5Ij5yZWN0NDE3OC41Nzg8L3RpdGxlPiYjeGE7CQkJPHJlY3QgaWQ9InJlY3QxNTkyMTEiIHg9IjAiIHk9IjY4LjUxIiBzdHlsZT0iZmlsbDojMDA4MjcyOyIgd2lkdGg9IjIxLjQyIiBoZWlnaHQ9IjEuMTkiLz4mI3hhOwkJPC9nPiYjeGE7CQk8ZyBpZD0ic2hhcGUxNDU2LTgwIiB0cmFuc2Zvcm09InRyYW5zbGF0ZSgyMy44NDI3LC0yMS40MjA5KSI+JiN4YTsJCQk8dGl0bGUgaWQ9InRpdGxlMTU5MjE0Ij5yZWN0NDE4MC41Nzk8L3RpdGxlPiYjeGE7CQkJPHJlY3QgaWQ9InJlY3QxNTkyMTYiIHg9IjAiIHk9IjY4LjUxIiBzdHlsZT0iZmlsbDojMDA4MjcyOyIgd2lkdGg9IjIxLjQyIiBoZWlnaHQ9IjEuMTkiLz4mI3hhOwkJPC9nPiYjeGE7CQk8ZyBpZD0ic2hhcGUxNDU3LTgyIiB0cmFuc2Zvcm09InRyYW5zbGF0ZSg0Ni40NTM2LC0yMy44MDEpIj4mI3hhOwkJCTx0aXRsZSBpZD0idGl0bGUxNTkyMTkiPnJlY3Q0MTgyLjU4MDwvdGl0bGU+JiN4YTsJCQk8cmVjdCBpZD0icmVjdDE1OTIyMSIgeD0iMCIgeT0iNjguNTEiIHN0eWxlPSJmaWxsOiMwMDgyNzI7IiB3aWR0aD0iMTcuODUiIGhlaWdodD0iMS4xOSIvPiYjeGE7CQk8L2c+JiN4YTsJCTxnIGlkPSJzaGFwZTE0NTgtODQiIHRyYW5zZm9ybT0idHJhbnNsYXRlKDIxLjQ2MjYsLTIxLjQyMDkpIj4mI3hhOwkJCTx0aXRsZSBpZD0idGl0bGUxNTkyMjQiPnJlY3Q0MTg0LjU4MTwvdGl0bGU+JiN4YTsJCQk8cmVjdCBpZD0icmVjdDE1OTIyNiIgeD0iMCIgeT0iNjguNTEiIHN0eWxlPSJmaWxsOiM2RDZFNzE7IiB3aWR0aD0iMS4xOSIgaGVpZ2h0PSIxLjE5Ii8+JiN4YTsJCTwvZz4mI3hhOwkJPGcgaWQ9InNoYXBlMTQ1OS04NiIgdHJhbnNmb3JtPSJ0cmFuc2xhdGUoMjEuNDYyNiwtMTkuMDQwOCkiPiYjeGE7CQkJPHRpdGxlIGlkPSJ0aXRsZTE1OTIyOSI+cmVjdDQxODYuNTgyPC90aXRsZT4mI3hhOwkJCTxyZWN0IGlkPSJyZWN0MTU5MjMxIiB4PSIwIiB5PSI2OC41MSIgc3R5bGU9ImZpbGw6IzZENkU3MTsiIHdpZHRoPSIxLjE5IiBoZWlnaHQ9IjEuMTkiLz4mI3hhOwkJPC9nPiYjeGE7CQk8ZyBpZD0ic2hhcGUxNDYwLTg4IiB0cmFuc2Zvcm09InRyYW5zbGF0ZSgyMy44NDI3LC0xOS4wNDA4KSI+JiN4YTsJCQk8dGl0bGUgaWQ9InRpdGxlMTU5MjM0Ij5yZWN0NDE4OC41ODM8L3RpdGxlPiYjeGE7CQkJPHJlY3QgaWQ9InJlY3QxNTkyMzYiIHg9IjAiIHk9IjY4LjUxIiBzdHlsZT0iZmlsbDojNkQ2RTcxOyIgd2lkdGg9IjE0LjI4IiBoZWlnaHQ9IjEuMTkiLz4mI3hhOwkJPC9nPiYjeGE7CQk8ZyBpZD0ic2hhcGUxNDYxLTkwIiB0cmFuc2Zvcm09InRyYW5zbGF0ZSgzOS4zMTMzLC0xOS4wNDA4KSI+JiN4YTsJCQk8dGl0bGUgaWQ9InRpdGxlMTU5MjM5Ij5yZWN0NDE5MC41ODQ8L3RpdGxlPiYjeGE7CQkJPHJlY3QgaWQ9InJlY3QxNTkyNDEiIHg9IjAiIHk9IjY4LjUxIiBzdHlsZT0iZmlsbDojNkQ2RTcxOyIgd2lkdGg9IjI0LjQiIGhlaWdodD0iMS4xOSIvPiYjeGE7CQk8L2c+JiN4YTsJCTxnIGlkPSJzaGFwZTE0NjItOTIiIHRyYW5zZm9ybT0idHJhbnNsYXRlKDQ1LjI2MzYsLTE2LjY2MDcpIj4mI3hhOwkJCTx0aXRsZSBpZD0idGl0bGUxNTkyNDQiPnJlY3Q0MTkyLjU4NTwvdGl0bGU+JiN4YTsJCQk8cmVjdCBpZD0icmVjdDE1OTI0NiIgeD0iMCIgeT0iNjguNTEiIHN0eWxlPSJmaWxsOiM2RDZFNzE7IiB3aWR0aD0iMjQuNCIgaGVpZ2h0PSIxLjE5Ii8+JiN4YTsJCTwvZz4mI3hhOwkJPGcgaWQ9InNoYXBlMTQ2My05NCIgdHJhbnNmb3JtPSJ0cmFuc2xhdGUoMjEuNDYyNiwtMTYuNjYwNykiPiYjeGE7CQkJPHRpdGxlIGlkPSJ0aXRsZTE1OTI0OSI+cmVjdDQxOTQuNTg2PC90aXRsZT4mI3hhOwkJCTxyZWN0IGlkPSJyZWN0MTU5MjUxIiB4PSIwIiB5PSI2OC41MSIgc3R5bGU9ImZpbGw6IzZENkU3MTsiIHdpZHRoPSIxLjE5IiBoZWlnaHQ9IjEuMTkiLz4mI3hhOwkJPC9nPiYjeGE7CQk8ZyBpZD0ic2hhcGUxNDY0LTk2IiB0cmFuc2Zvcm09InRyYW5zbGF0ZSgyMy4yNDc2LC0xNi42NjA3KSI+JiN4YTsJCQk8dGl0bGUgaWQ9InRpdGxlMTU5MjU0Ij5yZWN0NDE5Ni41ODc8L3RpdGxlPiYjeGE7CQkJPHJlY3QgaWQ9InJlY3QxNTkyNTYiIHg9IjAiIHk9IjY4LjUxIiBzdHlsZT0iZmlsbDojNkQ2RTcxOyIgd2lkdGg9IjIwLjc3IiBoZWlnaHQ9IjEuMTkiLz4mI3hhOwkJPC9nPiYjeGE7CQk8ZyBpZD0ic2hhcGUxNDY1LTk4IiB0cmFuc2Zvcm09InRyYW5zbGF0ZSg1MS44NTY1LC04LjMzMDM2KSI+JiN4YTsJCQk8dGl0bGUgaWQ9InRpdGxlMTU5MjU5Ij5yZWN0NDI3OC41OTY8L3RpdGxlPiYjeGE7CQkJPHJlY3QgaWQ9InJlY3QxNTkyNjEiIHg9IjAiIHk9IjY3LjMyIiBzdHlsZT0iZmlsbDojODA4MDgwOyIgd2lkdGg9IjIuMzgiIGhlaWdodD0iMi4zOCIvPiYjeGE7CQk8L2c+JiN4YTsJPC9nPiYjeGE7PC9nPiYjeGE7PC9zdmc+;dashed=1;dashPattern=1 4;strokeColor=#CCCCCC;strokeWidth=4;fontSize=12;" parent="C1qNaE6wFHK00PiSsJT4-1" vertex="1">
          <mxGeometry x="-377.25" y="1346.5" width="107" height="67" as="geometry" />
        </mxCell>
        <mxCell id="F8izz3wL6bqQNi6R3ZYM-1" value="Microsoft Azure" style="text;html=1;strokeColor=none;fillColor=none;align=center;verticalAlign=middle;whiteSpace=wrap;rounded=0;fontStyle=1;fontSize=14;fontColor=#808080;" parent="C1qNaE6wFHK00PiSsJT4-1" vertex="1">
          <mxGeometry x="-738.25" y="1482" width="118" height="20" as="geometry" />
        </mxCell>
        <mxCell id="F8izz3wL6bqQNi6R3ZYM-2" value="" style="shape=image;verticalLabelPosition=bottom;labelBackgroundColor=#ffffff;verticalAlign=top;aspect=fixed;imageAspect=0;image=data:image/svg+xml,PHN2ZyB4bWxuczpkYz0iaHR0cDovL3B1cmwub3JnL2RjL2VsZW1lbnRzLzEuMS8iIHhtbG5zOmNjPSJodHRwOi8vY3JlYXRpdmVjb21tb25zLm9yZy9ucyMiIHhtbG5zOnJkZj0iaHR0cDovL3d3dy53My5vcmcvMTk5OS8wMi8yMi1yZGYtc3ludGF4LW5zIyIgeG1sbnM6c3ZnPSJodHRwOi8vd3d3LnczLm9yZy8yMDAwL3N2ZyIgeG1sbnM9Imh0dHA6Ly93d3cudzMub3JnLzIwMDAvc3ZnIiB4bWxuczpzb2RpcG9kaT0iaHR0cDovL3NvZGlwb2RpLnNvdXJjZWZvcmdlLm5ldC9EVEQvc29kaXBvZGktMC5kdGQiIHhtbG5zOmlua3NjYXBlPSJodHRwOi8vd3d3Lmlua3NjYXBlLm9yZy9uYW1lc3BhY2VzL2lua3NjYXBlIiB2ZXJzaW9uPSIxLjEiIGlkPSJzdmc3NzU3OSIgaW5rc2NhcGU6dmVyc2lvbj0iMC45Mi4zICgyNDA1NTQ2LCAyMDE4LTAzLTExKSIgc29kaXBvZGk6ZG9jbmFtZT0ibWljcm9zb2Z0X2F6dXJlLnN2ZyIgeD0iMHB4IiB5PSIwcHgiIHZpZXdCb3g9IjAgMCA2Mi43NjMxODQgNDguNDc5OTk5IiB4bWw6c3BhY2U9InByZXNlcnZlIiB3aWR0aD0iNjIuNzYzMTg0IiBoZWlnaHQ9IjQ4LjQ4Ij48bWV0YWRhdGEgaWQ9Im1ldGFkYXRhNjc4MCI+PHJkZjpSREY+PGNjOldvcmsgcmRmOmFib3V0PSIiPjxkYzpmb3JtYXQ+aW1hZ2Uvc3ZnK3htbDwvZGM6Zm9ybWF0PjxkYzp0eXBlIHJkZjpyZXNvdXJjZT0iaHR0cDovL3B1cmwub3JnL2RjL2RjbWl0eXBlL1N0aWxsSW1hZ2UiLz48ZGM6dGl0bGUvPjwvY2M6V29yaz48L3JkZjpSREY+PC9tZXRhZGF0YT48ZGVmcyBpZD0iZGVmczY3NzgiPiYjeGE7CSYjeGE7CSYjeGE7JiN4YTsJCSYjeGE7CQkmI3hhOwkJJiN4YTsJJiN4YTsJCQkmI3hhOwkJPC9kZWZzPiYjeGE7PHNvZGlwb2RpOm5hbWVkdmlldyBib3JkZXJjb2xvcj0iIzY2NjY2NiIgYm9yZGVyb3BhY2l0eT0iMSIgZml0LW1hcmdpbi1ib3R0b209IjAiIGZpdC1tYXJnaW4tbGVmdD0iMCIgZml0LW1hcmdpbi1yaWdodD0iMCIgZml0LW1hcmdpbi10b3A9IjAiIGdyaWR0b2xlcmFuY2U9IjEwIiBndWlkZXRvbGVyYW5jZT0iMTAiIGlkPSJuYW1lZHZpZXc3NzU4MSIgaW5rc2NhcGU6Y3VycmVudC1sYXllcj0ic3ZnNzc1NzkiIGlua3NjYXBlOmN4PSIzOC4zNTE3MDUiIGlua3NjYXBlOmN5PSIxMS4wODk3MDciIGlua3NjYXBlOnBhZ2VvcGFjaXR5PSIwIiBpbmtzY2FwZTpwYWdlc2hhZG93PSIyIiBpbmtzY2FwZTp3aW5kb3ctaGVpZ2h0PSIxMDE3IiBpbmtzY2FwZTp3aW5kb3ctbWF4aW1pemVkPSIxIiBpbmtzY2FwZTp3aW5kb3ctd2lkdGg9IjE5MjAiIGlua3NjYXBlOndpbmRvdy14PSItOCIgaW5rc2NhcGU6d2luZG93LXk9Ii04IiBpbmtzY2FwZTp6b29tPSI4LjQzOTExODIiIG9iamVjdHRvbGVyYW5jZT0iMTAiIHBhZ2Vjb2xvcj0iI2ZmZmZmZiIgc2hvd2dyaWQ9ImZhbHNlIj4mI3hhOwk8L3NvZGlwb2RpOm5hbWVkdmlldz4mI3hhOzxwYXRoIGlkPSJwYXRoNzc1NzQiIGlua3NjYXBlOmNvbm5lY3Rvci1jdXJ2YXR1cmU9IjAiIHN0eWxlPSJmaWxsOiMyMDc1YjgiIGQ9Im0gMTUuNjgyOTQ5LDQ4LjM2IGMgMC4wNywtMC4wNyA2LjQsLTEuMjMgMTQuMDYsLTIuNTcgNy42NSwtMS4zNSAxMy45NywtMi41IDE0LjAzLC0yLjU2IDAuMTIsLTAuMTEgLTAuNzUsLTEuMTcgLTEwLjIyLC0xMi40NiAtMi41MiwtMi45OSAtNC42MywtNS41NiAtNC43LC01LjcgLTAuMDksLTAuMTkgMC44OSwtMy4wNCAzLjczLC0xMC44MyAyLjExLC01LjgxIDMuODcsLTEwLjY1IDMuOTEsLTEwLjc1IDAuMDMsLTAuMDkgMC4xMywtMC4xNyAwLjIyLC0wLjE3IDAuMTksMCAyNi4xNCw0NC45MSAyNi4wNSw0NS4wNiAtMC4wNCwwLjA2IC0xMC42OCwwLjEgLTIzLjY0LDAuMSAtMTMuOTEsMCAtMjMuNTIsLTAuMDUgLTIzLjQ0LC0wLjEyIHogTSAwLjAwMjk0OTA1LDQzLjAxIGMgLTAuMDUsLTAuMTMgMC41NCwtMS4yOSAxLjQ0OTk5OTk1LC0yLjg4IDAuODQsLTEuNDYgNC40MjAwMDA0LC03LjY2IDcuOTUwMDAwNCwtMTMuNzcgbCA2LjQwOTk5OTYsLTExLjEgOS4wOCwtNy42MyBjIDQuOTksLTQuMTkgOS4xNSwtNy42MyA5LjI0LC03LjYzIDAuMSwwIDAuMTMsMC4wOSAwLjA4LDAuMjQgLTAuNDcsMS4yNCAtMTkuOTEsNDIuNjggLTIwLjA4LDQyLjgxIC0wLjE5LDAuMTMgLTEuODQsMC4xNyAtNy4xNDk5OTk2LDAuMTcgLTYuMDcwMDAwMzUsMCAtNi45MTAwMDAzNSwtMC4wMyAtNi45ODAwMDAzNSwtMC4yMSB6Ii8+JiN4YTs8L3N2Zz4=;dashed=1;strokeColor=#A9C4EB;strokeWidth=2;" parent="C1qNaE6wFHK00PiSsJT4-1" vertex="1">
          <mxGeometry x="-810" y="1468" width="63" height="48" as="geometry" />
        </mxCell>
        <mxCell id="WIpyw3SY4ZGiSGghKzKa-5" value="" style="rounded=1;whiteSpace=wrap;html=1;strokeWidth=4;strokeColor=#FFF2CC;" parent="C1qNaE6wFHK00PiSsJT4-1" vertex="1">
          <mxGeometry x="-500" y="2175" width="910" height="120" as="geometry" />
        </mxCell>
        <mxCell id="WvvZgAwr1YAiZWXA1E89-0" value="Azure Active Directory" style="aspect=fixed;html=1;points=[];align=center;image;fontSize=12;image=img/lib/azure2/identity/Azure_Active_Directory.svg;strokeColor=#B3B3B3;strokeWidth=2;" parent="C1qNaE6wFHK00PiSsJT4-1" vertex="1">
          <mxGeometry x="-430" y="2189" width="70" height="64" as="geometry" />
        </mxCell>
        <mxCell id="eD_urm2HPInHdLco0GU4-0" value="Azure Monitor" style="aspect=fixed;html=1;points=[];align=center;image;fontSize=12;image=img/lib/azure2/management_governance/Monitor.svg;strokeColor=#B3B3B3;strokeWidth=2;" parent="C1qNaE6wFHK00PiSsJT4-1" vertex="1">
          <mxGeometry x="28.5" y="2193" width="64" height="64" as="geometry" />
        </mxCell>
        <mxCell id="eD_urm2HPInHdLco0GU4-1" value="Azure Key Vault" style="aspect=fixed;html=1;points=[];align=center;image;fontSize=12;image=img/lib/azure2/security/Key_Vaults.svg;strokeColor=#B3B3B3;strokeWidth=2;" parent="C1qNaE6wFHK00PiSsJT4-1" vertex="1">
          <mxGeometry x="-190" y="2193" width="60" height="60" as="geometry" />
        </mxCell>
        <mxCell id="eD_urm2HPInHdLco0GU4-2" value="Gestión de Identidad, Seguridad, Monitoreo y Costos" style="text;html=1;strokeColor=#666666;fillColor=#f5f5f5;align=center;verticalAlign=middle;whiteSpace=wrap;rounded=0;fontColor=#333333;" parent="C1qNaE6wFHK00PiSsJT4-1" vertex="1">
          <mxGeometry x="-480" y="2149" width="290" height="20" as="geometry" />
        </mxCell>
        <mxCell id="ItuNeuNXjASm1uH4z1qx-0" value="Azure Cost Billing Management" style="aspect=fixed;html=1;points=[];align=center;image;fontSize=12;image=img/lib/azure2/general/Cost_Management_and_Billing.svg;strokeColor=#B3B3B3;strokeWidth=2;" parent="C1qNaE6wFHK00PiSsJT4-1" vertex="1">
          <mxGeometry x="258.5" y="2189" width="68" height="68" as="geometry" />
        </mxCell>
        <mxCell id="vxT3_yCo5nmHfmARMHZa-4" value="Gestión de APIs" style="text;html=1;strokeColor=#666666;fillColor=#f5f5f5;align=center;verticalAlign=middle;whiteSpace=wrap;rounded=0;fontColor=#333333;" parent="C1qNaE6wFHK00PiSsJT4-1" vertex="1">
          <mxGeometry x="-201.5" y="1650" width="110" height="20" as="geometry" />
        </mxCell>
        <mxCell id="I5mBjLB2NCfeR9yYZPKq-1" style="edgeStyle=orthogonalEdgeStyle;rounded=0;orthogonalLoop=1;jettySize=auto;html=1;entryX=0.5;entryY=0;entryDx=0;entryDy=0;endArrow=classic;endFill=1;" parent="C1qNaE6wFHK00PiSsJT4-1" source="vxT3_yCo5nmHfmARMHZa-7" target="aqXjaQ3aQLY0OUibcdgp-12" edge="1">
          <mxGeometry relative="1" as="geometry" />
        </mxCell>
        <mxCell id="vxT3_yCo5nmHfmARMHZa-7" value="API Service Management" style="aspect=fixed;html=1;points=[];align=center;image;fontSize=12;image=img/lib/azure2/integration/API_Management_Services.svg;strokeColor=#B3B3B3;strokeWidth=2;" parent="C1qNaE6wFHK00PiSsJT4-1" vertex="1">
          <mxGeometry x="-84.12" y="1630" width="65" height="60" as="geometry" />
        </mxCell>
        <mxCell id="6tL6PodW8PY01BVz0MZv-1" style="edgeStyle=orthogonalEdgeStyle;rounded=0;orthogonalLoop=1;jettySize=auto;html=1;endArrow=classic;endFill=1;" parent="C1qNaE6wFHK00PiSsJT4-1" source="6tL6PodW8PY01BVz0MZv-0" target="vxT3_yCo5nmHfmARMHZa-7" edge="1">
          <mxGeometry relative="1" as="geometry" />
        </mxCell>
        <mxCell id="6tL6PodW8PY01BVz0MZv-0" value="Azure Application gateway" style="shape=image;verticalLabelPosition=bottom;labelBackgroundColor=#ffffff;verticalAlign=top;aspect=fixed;imageAspect=0;image=data:image/svg+xml,PHN2ZyB4bWxuczpkYz0iaHR0cDovL3B1cmwub3JnL2RjL2VsZW1lbnRzLzEuMS8iIHhtbG5zOmNjPSJodHRwOi8vY3JlYXRpdmVjb21tb25zLm9yZy9ucyMiIHhtbG5zOnJkZj0iaHR0cDovL3d3dy53My5vcmcvMTk5OS8wMi8yMi1yZGYtc3ludGF4LW5zIyIgeG1sbnM6c3ZnPSJodHRwOi8vd3d3LnczLm9yZy8yMDAwL3N2ZyIgeG1sbnM9Imh0dHA6Ly93d3cudzMub3JnLzIwMDAvc3ZnIiB4bWxuczpzb2RpcG9kaT0iaHR0cDovL3NvZGlwb2RpLnNvdXJjZWZvcmdlLm5ldC9EVEQvc29kaXBvZGktMC5kdGQiIHhtbG5zOmlua3NjYXBlPSJodHRwOi8vd3d3Lmlua3NjYXBlLm9yZy9uYW1lc3BhY2VzL2lua3NjYXBlIiB2ZXJzaW9uPSIxLjEiIGlkPSJzdmc0OTI1OSIgaW5rc2NhcGU6dmVyc2lvbj0iMC45Mi4zICgyNDA1NTQ2LCAyMDE4LTAzLTExKSIgc29kaXBvZGk6ZG9jbmFtZT0iYXBwbGljYXRpb25fZ2F0ZXdheS5zdmciIHg9IjBweCIgeT0iMHB4IiB2aWV3Qm94PSIwIDAgMTAwLjMxIDEwMC4xMSIgeG1sOnNwYWNlPSJwcmVzZXJ2ZSIgd2lkdGg9IjEwMC4zMSIgaGVpZ2h0PSIxMDAuMTEiPjxtZXRhZGF0YSBpZD0ibWV0YWRhdGExNjMzNSI+PHJkZjpSREY+PGNjOldvcmsgcmRmOmFib3V0PSIiPjxkYzpmb3JtYXQ+aW1hZ2Uvc3ZnK3htbDwvZGM6Zm9ybWF0PjxkYzp0eXBlIHJkZjpyZXNvdXJjZT0iaHR0cDovL3B1cmwub3JnL2RjL2RjbWl0eXBlL1N0aWxsSW1hZ2UiLz48ZGM6dGl0bGUvPjwvY2M6V29yaz48L3JkZjpSREY+PC9tZXRhZGF0YT48ZGVmcyBpZD0iZGVmczE2MzMzIi8+JiN4YTs8ZmlsdGVyIGlkPSJmaWx0ZXJfMiI+JiN4YTsJPGZlR2F1c3NpYW5CbHVyIGlkPSJmZUdhdXNzaWFuQmx1cjQ5MTg0IiBzdGREZXZpYXRpb249IjIiLz4mI3hhOzwvZmlsdGVyPiYjeGE7PHNvZGlwb2RpOm5hbWVkdmlldyBib3JkZXJjb2xvcj0iIzY2NjY2NiIgYm9yZGVyb3BhY2l0eT0iMSIgZml0LW1hcmdpbi1ib3R0b209IjAiIGZpdC1tYXJnaW4tbGVmdD0iMCIgZml0LW1hcmdpbi1yaWdodD0iMCIgZml0LW1hcmdpbi10b3A9IjAiIGdyaWR0b2xlcmFuY2U9IjEwIiBndWlkZXRvbGVyYW5jZT0iMTAiIGlkPSJuYW1lZHZpZXc0OTI2MSIgaW5rc2NhcGU6Y3VycmVudC1sYXllcj0ic3ZnNDkyNTkiIGlua3NjYXBlOmN4PSIzNy42OTE3NzEiIGlua3NjYXBlOmN5PSI0OC40MTY5MjYiIGlua3NjYXBlOnBhZ2VvcGFjaXR5PSIwIiBpbmtzY2FwZTpwYWdlc2hhZG93PSIyIiBpbmtzY2FwZTp3aW5kb3ctaGVpZ2h0PSIxMDE3IiBpbmtzY2FwZTp3aW5kb3ctbWF4aW1pemVkPSIxIiBpbmtzY2FwZTp3aW5kb3ctd2lkdGg9IjE5MjAiIGlua3NjYXBlOndpbmRvdy14PSItOCIgaW5rc2NhcGU6d2luZG93LXk9Ii04IiBpbmtzY2FwZTp6b29tPSI1LjIxOTMxOTgiIG9iamVjdHRvbGVyYW5jZT0iMTAiIHBhZ2Vjb2xvcj0iI2ZmZmZmZiIgc2hvd2dyaWQ9ImZhbHNlIj4mI3hhOwk8L3NvZGlwb2RpOm5hbWVkdmlldz4mI3hhOyYjeGE7PHBhdGggaWQ9InBhdGg0OTE5NyIgaW5rc2NhcGU6Y29ubmVjdG9yLWN1cnZhdHVyZT0iMCIgc3R5bGU9ImZpbGw6IzdmYmEwMCIgZD0ibSA1MC4wNSwxMDAuMTEgYyAtMi40LDAgLTQuOCwtMS4wMSAtNi42LC0yLjgxIEwgMi44LDU2LjY2IEMgMSw1NC44NiAwLDUyLjQ2IDAsNTAuMDUgYyAwLC0yLjQgMSwtNC44IDIuOCwtNi42IEwgNDMuNDUsMi44IEMgNDUuMjUsMSA0Ny42NSwwIDUwLjA1LDAgYyAyLjQxLDAgNC44MSwxIDYuNjEsMi44IEwgOTcuNSw0My42NSBjIDEuOCwxLjggMi44MSw0IDIuODEsNi42IDAsMi40MSAtMS4wMSw0LjgxIC0yLjgxLDYuNjEgTCA1Ni42Niw5Ny4zIGMgLTEuOCwxLjggLTQuMiwyLjgxIC02LjYxLDIuODEgeiIvPiYjeGE7JiN4YTs8cGF0aCBpZD0icGF0aDQ5MjA1IiBpbmtzY2FwZTpjb25uZWN0b3ItY3VydmF0dXJlPSIwIiBzdHlsZT0iZmlsbDojZmZmZmZmIiBkPSJtIDU5LjU0LDM3LjIgYyAtMi44LDIuMTQgLTYuMDksMy4xOSAtOS4zNywzLjE5IC00LjY0LDAgLTkuMjQsLTIuMDkgLTEyLjI3LC02LjA2IC01LjE5LC02Ljc3IC0zLjkxLC0xNi40NiAyLjg3LC0yMS42NSAyLjgsLTIuMTUgNi4xLC0zLjE4IDkuMzcsLTMuMTggNC42NSwwIDkuMjQsMi4wOSAxMi4yOCw2LjA2IDUuMTgsNi43OCAzLjg5LDE2LjQ2IC0yLjg4LDIxLjY0IHoiLz4mI3hhOyYjeGE7PHBhdGggaWQ9InBhdGg0OTIxMyIgaW5rc2NhcGU6Y29ubmVjdG9yLWN1cnZhdHVyZT0iMCIgc3R5bGU9ImZpbGw6I2ZmZmZmZjtmaWxsLW9wYWNpdHk6MC4xNSIgZD0iTSA1Ni42NiwyLjggQyA1NC44NiwxIDUyLjQ2LDAgNTAuMDUsMCBjIC0yLjQsMCAtNC44LDEgLTYuNiwyLjggTCAyLjgsNDMuNDUgQyAxLDQ1LjI1IDAsNDcuNjUgMCw1MC4wNSBjIDAsMi40MSAxLDQuODEgMi44LDYuNjEgTCAyNS44Myw3OS42OSA2OS4yNywxNS40MiBaIi8+JiN4YTsmI3hhOzxwYXRoIGlkPSJwYXRoNDkyMjEiIGlua3NjYXBlOmNvbm5lY3Rvci1jdXJ2YXR1cmU9IjAiIHN0eWxlPSJmaWxsOiNmZmZmZmYiIGQ9Ik0gNTAuMDUsOTEuMyA2My4yNyw3OC4wOCBIIDUzLjg2IFYgMzguMzQgaCAtNy44MSB2IDM5Ljc0IGggLTkuMjEgeiIvPiYjeGE7JiN4YTs8cGF0aCBpZD0icGF0aDQ5MjI5IiBpbmtzY2FwZTpjb25uZWN0b3ItY3VydmF0dXJlPSIwIiBzdHlsZT0iZmlsbDojZmZmZmZmIiBkPSJNIDc4Ljc0LDY3LjA0IFYgNDguMzUgbCAtNi41MSw2LjUxIC0xNi45MSwtMTYuOTEgLTUuNjYsNS42NyAxNi45MSwxNi45IC02LjUyLDYuNTIgeiIvPiYjeGE7JiN4YTs8cGF0aCBpZD0icGF0aDQ5MjM3IiBpbmtzY2FwZTpjb25uZWN0b3ItY3VydmF0dXJlPSIwIiBzdHlsZT0iZmlsbDojZmZmZmZmIiBkPSJNIDIxLjM5LDY3LjExIEggNDAuMDggTCAzMy41Niw2MC41OSA1MC45NSw0My4yMSA0NS4yOCwzNy41NSAyNy45LDU0LjkzIDIxLjM5LDQ4LjQyIFoiLz4mI3hhOyYjeGE7PHBhdGggaWQ9InBhdGg0OTI0NSIgaW5rc2NhcGU6Y29ubmVjdG9yLWN1cnZhdHVyZT0iMCIgc3R5bGU9ImZpbGw6IzU5YjRkOSIgZD0ibSA1OC4yOSwzNS41OCBjIC0yLjQyLDEuODUgLTUuMjgsMi43NiAtOC4xMiwyLjc2IC00LjAzLDAgLTguMDEsLTEuODEgLTEwLjY0LC01LjI2IC00LjUsLTUuODcgLTMuMzksLTE0LjI3IDIuNDksLTE4Ljc3IDIuNDMsLTEuODYgNS4yOSwtMi43NSA4LjEyLC0yLjc1IDQuMDMsMCA4LjAyLDEuOCAxMC42NSw1LjI1IDQuNSw1Ljg3IDMuMzgsMTQuMjcgLTIuNSwxOC43NyB6Ii8+JiN4YTsmI3hhOzxwYXRoIGlkPSJwYXRoNDkyNTMiIGlua3NjYXBlOmNvbm5lY3Rvci1jdXJ2YXR1cmU9IjAiIHN0eWxlPSJmaWxsOiNmZmZmZmYiIGQ9Im0gNTUuODMsMjcuMyBjIDAuOTgsMS4yNyAyLjc4LDEuNDkgNC4wNCwwLjU0IDAuMDcsLTAuMDUgMC4xMiwtMC4xMiAwLjE4LC0wLjE3IDEuMjksMC45MSAyLjE4LDEuNTEgMi42OSwxLjg1IDAuMTUsLTAuMzkgMC4yNSwtMC43NiAwLjM2LC0xLjE1IC0wLjUzLC0wLjM5IC0xLjI2LC0wLjk1IC0yLjMsLTEuNzkgMC4zNCwtMC45IDAuMjMsLTEuOTUgLTAuMzksLTIuNzggLTAuOSwtMS4xNSAtMi40OCwtMS40NSAtMy43MiwtMC43MyAtMS4zNiwtMS4yMyAtMi44NiwtMi42MyAtNC40NCwtNC4yIDQuOTEsLTIuNjQgOC40LC0yLjI1IDguNCwtMi4yNSAtMC41OSwtMC43NSAtMS4yNCwtMS40IC0xLjkzLC0xLjk4IC0yLjA3LC0wLjMyIC01LjI5LC0wLjI5IC04Ljk3LDEuNjcgViAxNi4zIGMgLTEuMjIsLTEuMjggLTIuNDcsLTIuNjUgLTMuNzQsLTQuMTMgLTAuNiwwLjIgLTEuMiwwLjQ0IC0xLjc3LDAuNzMgMC45MywxLjUzIDIuMiwzLjA3IDMuNjIsNC41OCAwLDAuMDEgMCwwLjAxIDAuMDEsMC4wMSAtMS4xOSwwLjgzIC0yLjUxLDEuOTQgLTMuNzIsMy4yMyAtMC4xNiwwLjE2IC0wLjMxLDAuMzMgLTAuNDUsMC40OSAtMC43MywtMC4xNSAtMS41LC0wLjEgLTIuMjEsMC4xNSAtMS4yMSwtMi42MSAtMS4xMiwtNC43MSAtMC45MiwtNS44IC0wLjUzLDAuNTUgLTEuMDIsMS4xMyAtMS40NSwxLjc1IC0wLjMxLDEuMyAtMC40LDMuMTYgMC41Myw1LjQxIC0xLjA4LDEuNDIgLTEuMTMsMy40MiAwLDQuOSAwLjEsMC4xMiAwLjIsMC4yNCAwLjMsMC4zNSAtMC40OSwxLjY4IC0wLjcxLDMuMyAtMC43OCw0LjY5IDAuMTIsMC4xNyAwLjEyLDAuMzEgMC4yNSwwLjQ4IDAuNjQsMC44MyAxLjQ1LDEuNTIgMi4yMywyLjE1IC0wLjEsLTEuNDcgMC4wMSwtMy42NSAwLjkyLC02LjA5IDAuNjMsMC4wNCAxLjI3LC0wLjA2IDEuODYsLTAuMzEgMC4zNSwwLjMxIDAuNywwLjYxIDEuMDksMC45MiAxLjMxLDEuMDQgMi42MiwxLjg1IDMuOSwyLjQ5IC0wLjA2LDAuNjUgMC4xLDEuMzIgMC41MiwxLjg4IDAuOSwxLjE3IDIuNTcsMS4zOSAzLjc0LDAuNDkgMC4yNCwtMC4xOCAwLjQzLC0wLjQxIDAuNTksLTAuNjUgMi4wOSwwLjQ3IDMuOTEsMC41NSA1LjI2LDAuNTUgMC4yLDAgMS4xNiwtMS4zMSAxLjcxLC0yLjExIC0wLjgyLDAuMTcgLTMuMjYsMC41IC02LjU5LC0wLjQ1IC0wLjA4LC0wLjM4IC0wLjIzLC0wLjc0IC0wLjQ4LC0xLjA3IC0wLjg0LC0xLjEgLTIuMzksLTEuMzUgLTMuNTQsLTAuNiAtMS4xNiwtMC42MyAtMi4zNywtMS40MiAtMy42MiwtMi40MSAtMC4yNiwtMC4yIC0wLjUsLTAuNCAtMC43MywtMC42IDAuNzYsLTEuMiAwLjg0LC0yLjc0IDAuMTcsLTQuMDQgMC4xNSwtMC4xNSAwLjMsLTAuMzEgMC40NiwtMC40NiAxLjI0LC0xLjE2IDIuNDEsLTIuMDggMy41LC0yLjgyIC0wLjA1LC0wLjA0IC0wLjA5LC0wLjA5IC0wLjEzLC0wLjEzIDAuMDQsMC4wNCAwLjA4LDAuMDggMC4xMywwLjEyIHYgMCBjIDEuNjcsMS41NSAzLjQ0LDMuMDIgNS4xMiw0LjMzIC0wLjQ0LDAuOTQgLTAuMzcsMi4wOCAwLjMsMi45NyB6Ii8+JiN4YTs8L3N2Zz4=;strokeColor=#A9C4EB;strokeWidth=2;" parent="C1qNaE6wFHK00PiSsJT4-1" vertex="1">
          <mxGeometry x="-81.62" y="1516" width="60" height="60" as="geometry" />
        </mxCell>
        <mxCell id="xeCmtIPJGwv4AAm7OMuD-53" value="v1.0 - Arq. de referencia revisada con Microsoft" style="text;html=1;strokeColor=#666666;fillColor=#f5f5f5;align=left;verticalAlign=middle;whiteSpace=wrap;rounded=0;fontColor=#333333;" parent="C1qNaE6wFHK00PiSsJT4-1" vertex="1">
          <mxGeometry x="-827" y="1280" width="289" height="20" as="geometry" />
        </mxCell>
      </root>
    </mxGraphModel>
  </diagram>
  <diagram id="gwaAS7iuUceaFdIxsXIu" name="TO-BE Detalle">
    <mxGraphModel dx="3197" dy="-270" grid="1" gridSize="10" guides="1" tooltips="1" connect="1" arrows="1" fold="1" page="1" pageScale="1" pageWidth="850" pageHeight="1100" math="0" shadow="0">
      <root>
        <mxCell id="ooYEH0mbtsRe8uLb8l4n-0" />
        <mxCell id="ooYEH0mbtsRe8uLb8l4n-1" parent="ooYEH0mbtsRe8uLb8l4n-0" />
        <mxCell id="tDMd5CsiUgjFfo_qhA0A-4" value="" style="rounded=0;whiteSpace=wrap;html=1;strokeWidth=1;align=left;" parent="ooYEH0mbtsRe8uLb8l4n-1" vertex="1">
          <mxGeometry x="-908.75" y="1250" width="1681.37" height="1190" as="geometry" />
        </mxCell>
        <mxCell id="tDMd5CsiUgjFfo_qhA0A-5" value="" style="rounded=0;whiteSpace=wrap;html=1;strokeWidth=2;align=left;strokeColor=#D4E1F5;" parent="ooYEH0mbtsRe8uLb8l4n-1" vertex="1">
          <mxGeometry x="-868.2" y="1360" width="480" height="870" as="geometry" />
        </mxCell>
        <mxCell id="tDMd5CsiUgjFfo_qhA0A-7" value="" style="rounded=0;whiteSpace=wrap;html=1;strokeWidth=2;align=left;strokeColor=#D4E1F5;" parent="ooYEH0mbtsRe8uLb8l4n-1" vertex="1">
          <mxGeometry x="-341.12" y="1280" width="1089" height="560" as="geometry" />
        </mxCell>
        <mxCell id="tDMd5CsiUgjFfo_qhA0A-59" value="" style="rounded=0;whiteSpace=wrap;html=1;strokeWidth=2;align=left;strokeColor=#D4E1F5;" parent="ooYEH0mbtsRe8uLb8l4n-1" vertex="1">
          <mxGeometry x="-341.5" y="1860" width="1089" height="560" as="geometry" />
        </mxCell>
        <mxCell id="tDMd5CsiUgjFfo_qhA0A-60" value="" style="rounded=0;whiteSpace=wrap;html=1;strokeWidth=1;align=left;strokeColor=#999999;" parent="ooYEH0mbtsRe8uLb8l4n-1" vertex="1">
          <mxGeometry x="-829.01" y="1520" width="410" height="690" as="geometry" />
        </mxCell>
        <mxCell id="tDMd5CsiUgjFfo_qhA0A-62" value="" style="rounded=0;whiteSpace=wrap;html=1;strokeWidth=1;align=left;" parent="ooYEH0mbtsRe8uLb8l4n-1" vertex="1">
          <mxGeometry x="-32.12" y="1710" width="540" height="110" as="geometry" />
        </mxCell>
        <mxCell id="tDMd5CsiUgjFfo_qhA0A-63" style="edgeStyle=orthogonalEdgeStyle;rounded=0;orthogonalLoop=1;jettySize=auto;html=1;strokeColor=#000000;strokeWidth=1;" parent="ooYEH0mbtsRe8uLb8l4n-1" source="tDMd5CsiUgjFfo_qhA0A-66" target="tDMd5CsiUgjFfo_qhA0A-62" edge="1">
          <mxGeometry relative="1" as="geometry" />
        </mxCell>
        <mxCell id="tDMd5CsiUgjFfo_qhA0A-65" style="edgeStyle=orthogonalEdgeStyle;rounded=0;orthogonalLoop=1;jettySize=auto;html=1;endArrow=classic;endFill=1;strokeWidth=1;" parent="ooYEH0mbtsRe8uLb8l4n-1" source="tDMd5CsiUgjFfo_qhA0A-66" target="tDMd5CsiUgjFfo_qhA0A-162" edge="1">
          <mxGeometry relative="1" as="geometry">
            <Array as="points">
              <mxPoint x="-108" y="1650" />
            </Array>
          </mxGeometry>
        </mxCell>
        <mxCell id="tDMd5CsiUgjFfo_qhA0A-66" value="" style="rounded=1;whiteSpace=wrap;html=1;strokeWidth=1;align=left;arcSize=5;" parent="ooYEH0mbtsRe8uLb8l4n-1" vertex="1">
          <mxGeometry x="-32.12" y="1509.5" width="540" height="170.5" as="geometry" />
        </mxCell>
        <mxCell id="tDMd5CsiUgjFfo_qhA0A-67" value="Azure DevOps" style="aspect=fixed;html=1;points=[];align=center;image;fontSize=12;image=img/lib/azure2/devops/Azure_DevOps.svg;strokeColor=#B3B3B3;strokeWidth=2;" parent="ooYEH0mbtsRe8uLb8l4n-1" vertex="1">
          <mxGeometry x="-781.51" y="1530" width="50" height="50" as="geometry" />
        </mxCell>
        <mxCell id="tDMd5CsiUgjFfo_qhA0A-68" style="edgeStyle=orthogonalEdgeStyle;rounded=0;orthogonalLoop=1;jettySize=auto;html=1;strokeColor=#000000;strokeWidth=1;entryX=-0.02;entryY=0.5;entryDx=0;entryDy=0;entryPerimeter=0;" parent="ooYEH0mbtsRe8uLb8l4n-1" source="tDMd5CsiUgjFfo_qhA0A-69" target="tDMd5CsiUgjFfo_qhA0A-84" edge="1">
          <mxGeometry relative="1" as="geometry">
            <Array as="points">
              <mxPoint x="-773.38" y="1840" />
              <mxPoint x="-589.38" y="1840" />
              <mxPoint x="-589.38" y="2109" />
            </Array>
          </mxGeometry>
        </mxCell>
        <mxCell id="tDMd5CsiUgjFfo_qhA0A-69" value="Azure Repos" style="aspect=fixed;html=1;points=[];align=center;image;fontSize=12;image=img/lib/mscae/Azure_Repos.svg;" parent="ooYEH0mbtsRe8uLb8l4n-1" vertex="1">
          <mxGeometry x="-799.26" y="1810" width="45" height="50" as="geometry" />
        </mxCell>
        <mxCell id="tDMd5CsiUgjFfo_qhA0A-70" style="edgeStyle=orthogonalEdgeStyle;rounded=0;orthogonalLoop=1;jettySize=auto;html=1;strokeColor=#000000;strokeWidth=1;endArrow=none;endFill=0;dashed=1;" parent="ooYEH0mbtsRe8uLb8l4n-1" source="tDMd5CsiUgjFfo_qhA0A-71" target="tDMd5CsiUgjFfo_qhA0A-66" edge="1">
          <mxGeometry relative="1" as="geometry">
            <Array as="points">
              <mxPoint x="-67.38" y="1605" />
              <mxPoint x="-67.38" y="1605" />
            </Array>
          </mxGeometry>
        </mxCell>
        <mxCell id="tDMd5CsiUgjFfo_qhA0A-71" value="Azure Container Registry" style="aspect=fixed;html=1;points=[];align=center;image;fontSize=12;image=img/lib/azure2/containers/Container_Registries.svg;strokeColor=#B3B3B3;strokeWidth=2;" parent="ooYEH0mbtsRe8uLb8l4n-1" vertex="1">
          <mxGeometry x="-210" y="1580" width="55.74" height="50" as="geometry" />
        </mxCell>
        <mxCell id="tDMd5CsiUgjFfo_qhA0A-72" value="Azure Kubernetes Services" style="aspect=fixed;html=1;points=[];align=center;image;fontSize=12;image=img/lib/azure2/containers/Kubernetes_Services.svg;strokeColor=#B3B3B3;strokeWidth=2;" parent="ooYEH0mbtsRe8uLb8l4n-1" vertex="1">
          <mxGeometry x="217.88" y="1520" width="49.87" height="44" as="geometry" />
        </mxCell>
        <mxCell id="tDMd5CsiUgjFfo_qhA0A-73" style="edgeStyle=orthogonalEdgeStyle;rounded=0;orthogonalLoop=1;jettySize=auto;html=1;entryX=0.5;entryY=0;entryDx=0;entryDy=0;strokeWidth=1;" parent="ooYEH0mbtsRe8uLb8l4n-1" source="tDMd5CsiUgjFfo_qhA0A-75" target="tDMd5CsiUgjFfo_qhA0A-66" edge="1">
          <mxGeometry relative="1" as="geometry" />
        </mxCell>
        <mxCell id="tDMd5CsiUgjFfo_qhA0A-74" style="edgeStyle=orthogonalEdgeStyle;rounded=0;orthogonalLoop=1;jettySize=auto;html=1;entryX=1.013;entryY=0.551;entryDx=0;entryDy=0;entryPerimeter=0;" parent="ooYEH0mbtsRe8uLb8l4n-1" source="tDMd5CsiUgjFfo_qhA0A-75" target="tDMd5CsiUgjFfo_qhA0A-169" edge="1">
          <mxGeometry relative="1" as="geometry">
            <Array as="points">
              <mxPoint x="238" y="1317" />
            </Array>
          </mxGeometry>
        </mxCell>
        <mxCell id="tDMd5CsiUgjFfo_qhA0A-75" value="Azure Application Gateway Ingress Controller" style="shape=image;verticalLabelPosition=bottom;labelBackgroundColor=#ffffff;verticalAlign=top;aspect=fixed;imageAspect=0;image=data:image/svg+xml,PHN2ZyB4bWxuczpkYz0iaHR0cDovL3B1cmwub3JnL2RjL2VsZW1lbnRzLzEuMS8iIHhtbG5zOmNjPSJodHRwOi8vY3JlYXRpdmVjb21tb25zLm9yZy9ucyMiIHhtbG5zOnJkZj0iaHR0cDovL3d3dy53My5vcmcvMTk5OS8wMi8yMi1yZGYtc3ludGF4LW5zIyIgeG1sbnM6c3ZnPSJodHRwOi8vd3d3LnczLm9yZy8yMDAwL3N2ZyIgeG1sbnM9Imh0dHA6Ly93d3cudzMub3JnLzIwMDAvc3ZnIiB4bWxuczpzb2RpcG9kaT0iaHR0cDovL3NvZGlwb2RpLnNvdXJjZWZvcmdlLm5ldC9EVEQvc29kaXBvZGktMC5kdGQiIHhtbG5zOmlua3NjYXBlPSJodHRwOi8vd3d3Lmlua3NjYXBlLm9yZy9uYW1lc3BhY2VzL2lua3NjYXBlIiB2ZXJzaW9uPSIxLjEiIGlkPSJzdmc0OTI1OSIgaW5rc2NhcGU6dmVyc2lvbj0iMC45Mi4zICgyNDA1NTQ2LCAyMDE4LTAzLTExKSIgc29kaXBvZGk6ZG9jbmFtZT0iYXBwbGljYXRpb25fZ2F0ZXdheS5zdmciIHg9IjBweCIgeT0iMHB4IiB2aWV3Qm94PSIwIDAgMTAwLjMxIDEwMC4xMSIgeG1sOnNwYWNlPSJwcmVzZXJ2ZSIgd2lkdGg9IjEwMC4zMSIgaGVpZ2h0PSIxMDAuMTEiPjxtZXRhZGF0YSBpZD0ibWV0YWRhdGExNjMzNSI+PHJkZjpSREY+PGNjOldvcmsgcmRmOmFib3V0PSIiPjxkYzpmb3JtYXQ+aW1hZ2Uvc3ZnK3htbDwvZGM6Zm9ybWF0PjxkYzp0eXBlIHJkZjpyZXNvdXJjZT0iaHR0cDovL3B1cmwub3JnL2RjL2RjbWl0eXBlL1N0aWxsSW1hZ2UiLz48ZGM6dGl0bGUvPjwvY2M6V29yaz48L3JkZjpSREY+PC9tZXRhZGF0YT48ZGVmcyBpZD0iZGVmczE2MzMzIi8+JiN4YTs8ZmlsdGVyIGlkPSJmaWx0ZXJfMiI+JiN4YTsJPGZlR2F1c3NpYW5CbHVyIGlkPSJmZUdhdXNzaWFuQmx1cjQ5MTg0IiBzdGREZXZpYXRpb249IjIiLz4mI3hhOzwvZmlsdGVyPiYjeGE7PHNvZGlwb2RpOm5hbWVkdmlldyBib3JkZXJjb2xvcj0iIzY2NjY2NiIgYm9yZGVyb3BhY2l0eT0iMSIgZml0LW1hcmdpbi1ib3R0b209IjAiIGZpdC1tYXJnaW4tbGVmdD0iMCIgZml0LW1hcmdpbi1yaWdodD0iMCIgZml0LW1hcmdpbi10b3A9IjAiIGdyaWR0b2xlcmFuY2U9IjEwIiBndWlkZXRvbGVyYW5jZT0iMTAiIGlkPSJuYW1lZHZpZXc0OTI2MSIgaW5rc2NhcGU6Y3VycmVudC1sYXllcj0ic3ZnNDkyNTkiIGlua3NjYXBlOmN4PSIzNy42OTE3NzEiIGlua3NjYXBlOmN5PSI0OC40MTY5MjYiIGlua3NjYXBlOnBhZ2VvcGFjaXR5PSIwIiBpbmtzY2FwZTpwYWdlc2hhZG93PSIyIiBpbmtzY2FwZTp3aW5kb3ctaGVpZ2h0PSIxMDE3IiBpbmtzY2FwZTp3aW5kb3ctbWF4aW1pemVkPSIxIiBpbmtzY2FwZTp3aW5kb3ctd2lkdGg9IjE5MjAiIGlua3NjYXBlOndpbmRvdy14PSItOCIgaW5rc2NhcGU6d2luZG93LXk9Ii04IiBpbmtzY2FwZTp6b29tPSI1LjIxOTMxOTgiIG9iamVjdHRvbGVyYW5jZT0iMTAiIHBhZ2Vjb2xvcj0iI2ZmZmZmZiIgc2hvd2dyaWQ9ImZhbHNlIj4mI3hhOwk8L3NvZGlwb2RpOm5hbWVkdmlldz4mI3hhOyYjeGE7PHBhdGggaWQ9InBhdGg0OTE5NyIgaW5rc2NhcGU6Y29ubmVjdG9yLWN1cnZhdHVyZT0iMCIgc3R5bGU9ImZpbGw6IzdmYmEwMCIgZD0ibSA1MC4wNSwxMDAuMTEgYyAtMi40LDAgLTQuOCwtMS4wMSAtNi42LC0yLjgxIEwgMi44LDU2LjY2IEMgMSw1NC44NiAwLDUyLjQ2IDAsNTAuMDUgYyAwLC0yLjQgMSwtNC44IDIuOCwtNi42IEwgNDMuNDUsMi44IEMgNDUuMjUsMSA0Ny42NSwwIDUwLjA1LDAgYyAyLjQxLDAgNC44MSwxIDYuNjEsMi44IEwgOTcuNSw0My42NSBjIDEuOCwxLjggMi44MSw0IDIuODEsNi42IDAsMi40MSAtMS4wMSw0LjgxIC0yLjgxLDYuNjEgTCA1Ni42Niw5Ny4zIGMgLTEuOCwxLjggLTQuMiwyLjgxIC02LjYxLDIuODEgeiIvPiYjeGE7JiN4YTs8cGF0aCBpZD0icGF0aDQ5MjA1IiBpbmtzY2FwZTpjb25uZWN0b3ItY3VydmF0dXJlPSIwIiBzdHlsZT0iZmlsbDojZmZmZmZmIiBkPSJtIDU5LjU0LDM3LjIgYyAtMi44LDIuMTQgLTYuMDksMy4xOSAtOS4zNywzLjE5IC00LjY0LDAgLTkuMjQsLTIuMDkgLTEyLjI3LC02LjA2IC01LjE5LC02Ljc3IC0zLjkxLC0xNi40NiAyLjg3LC0yMS42NSAyLjgsLTIuMTUgNi4xLC0zLjE4IDkuMzcsLTMuMTggNC42NSwwIDkuMjQsMi4wOSAxMi4yOCw2LjA2IDUuMTgsNi43OCAzLjg5LDE2LjQ2IC0yLjg4LDIxLjY0IHoiLz4mI3hhOyYjeGE7PHBhdGggaWQ9InBhdGg0OTIxMyIgaW5rc2NhcGU6Y29ubmVjdG9yLWN1cnZhdHVyZT0iMCIgc3R5bGU9ImZpbGw6I2ZmZmZmZjtmaWxsLW9wYWNpdHk6MC4xNSIgZD0iTSA1Ni42NiwyLjggQyA1NC44NiwxIDUyLjQ2LDAgNTAuMDUsMCBjIC0yLjQsMCAtNC44LDEgLTYuNiwyLjggTCAyLjgsNDMuNDUgQyAxLDQ1LjI1IDAsNDcuNjUgMCw1MC4wNSBjIDAsMi40MSAxLDQuODEgMi44LDYuNjEgTCAyNS44Myw3OS42OSA2OS4yNywxNS40MiBaIi8+JiN4YTsmI3hhOzxwYXRoIGlkPSJwYXRoNDkyMjEiIGlua3NjYXBlOmNvbm5lY3Rvci1jdXJ2YXR1cmU9IjAiIHN0eWxlPSJmaWxsOiNmZmZmZmYiIGQ9Ik0gNTAuMDUsOTEuMyA2My4yNyw3OC4wOCBIIDUzLjg2IFYgMzguMzQgaCAtNy44MSB2IDM5Ljc0IGggLTkuMjEgeiIvPiYjeGE7JiN4YTs8cGF0aCBpZD0icGF0aDQ5MjI5IiBpbmtzY2FwZTpjb25uZWN0b3ItY3VydmF0dXJlPSIwIiBzdHlsZT0iZmlsbDojZmZmZmZmIiBkPSJNIDc4Ljc0LDY3LjA0IFYgNDguMzUgbCAtNi41MSw2LjUxIC0xNi45MSwtMTYuOTEgLTUuNjYsNS42NyAxNi45MSwxNi45IC02LjUyLDYuNTIgeiIvPiYjeGE7JiN4YTs8cGF0aCBpZD0icGF0aDQ5MjM3IiBpbmtzY2FwZTpjb25uZWN0b3ItY3VydmF0dXJlPSIwIiBzdHlsZT0iZmlsbDojZmZmZmZmIiBkPSJNIDIxLjM5LDY3LjExIEggNDAuMDggTCAzMy41Niw2MC41OSA1MC45NSw0My4yMSA0NS4yOCwzNy41NSAyNy45LDU0LjkzIDIxLjM5LDQ4LjQyIFoiLz4mI3hhOyYjeGE7PHBhdGggaWQ9InBhdGg0OTI0NSIgaW5rc2NhcGU6Y29ubmVjdG9yLWN1cnZhdHVyZT0iMCIgc3R5bGU9ImZpbGw6IzU5YjRkOSIgZD0ibSA1OC4yOSwzNS41OCBjIC0yLjQyLDEuODUgLTUuMjgsMi43NiAtOC4xMiwyLjc2IC00LjAzLDAgLTguMDEsLTEuODEgLTEwLjY0LC01LjI2IC00LjUsLTUuODcgLTMuMzksLTE0LjI3IDIuNDksLTE4Ljc3IDIuNDMsLTEuODYgNS4yOSwtMi43NSA4LjEyLC0yLjc1IDQuMDMsMCA4LjAyLDEuOCAxMC42NSw1LjI1IDQuNSw1Ljg3IDMuMzgsMTQuMjcgLTIuNSwxOC43NyB6Ii8+JiN4YTsmI3hhOzxwYXRoIGlkPSJwYXRoNDkyNTMiIGlua3NjYXBlOmNvbm5lY3Rvci1jdXJ2YXR1cmU9IjAiIHN0eWxlPSJmaWxsOiNmZmZmZmYiIGQ9Im0gNTUuODMsMjcuMyBjIDAuOTgsMS4yNyAyLjc4LDEuNDkgNC4wNCwwLjU0IDAuMDcsLTAuMDUgMC4xMiwtMC4xMiAwLjE4LC0wLjE3IDEuMjksMC45MSAyLjE4LDEuNTEgMi42OSwxLjg1IDAuMTUsLTAuMzkgMC4yNSwtMC43NiAwLjM2LC0xLjE1IC0wLjUzLC0wLjM5IC0xLjI2LC0wLjk1IC0yLjMsLTEuNzkgMC4zNCwtMC45IDAuMjMsLTEuOTUgLTAuMzksLTIuNzggLTAuOSwtMS4xNSAtMi40OCwtMS40NSAtMy43MiwtMC43MyAtMS4zNiwtMS4yMyAtMi44NiwtMi42MyAtNC40NCwtNC4yIDQuOTEsLTIuNjQgOC40LC0yLjI1IDguNCwtMi4yNSAtMC41OSwtMC43NSAtMS4yNCwtMS40IC0xLjkzLC0xLjk4IC0yLjA3LC0wLjMyIC01LjI5LC0wLjI5IC04Ljk3LDEuNjcgViAxNi4zIGMgLTEuMjIsLTEuMjggLTIuNDcsLTIuNjUgLTMuNzQsLTQuMTMgLTAuNiwwLjIgLTEuMiwwLjQ0IC0xLjc3LDAuNzMgMC45MywxLjUzIDIuMiwzLjA3IDMuNjIsNC41OCAwLDAuMDEgMCwwLjAxIDAuMDEsMC4wMSAtMS4xOSwwLjgzIC0yLjUxLDEuOTQgLTMuNzIsMy4yMyAtMC4xNiwwLjE2IC0wLjMxLDAuMzMgLTAuNDUsMC40OSAtMC43MywtMC4xNSAtMS41LC0wLjEgLTIuMjEsMC4xNSAtMS4yMSwtMi42MSAtMS4xMiwtNC43MSAtMC45MiwtNS44IC0wLjUzLDAuNTUgLTEuMDIsMS4xMyAtMS40NSwxLjc1IC0wLjMxLDEuMyAtMC40LDMuMTYgMC41Myw1LjQxIC0xLjA4LDEuNDIgLTEuMTMsMy40MiAwLDQuOSAwLjEsMC4xMiAwLjIsMC4yNCAwLjMsMC4zNSAtMC40OSwxLjY4IC0wLjcxLDMuMyAtMC43OCw0LjY5IDAuMTIsMC4xNyAwLjEyLDAuMzEgMC4yNSwwLjQ4IDAuNjQsMC44MyAxLjQ1LDEuNTIgMi4yMywyLjE1IC0wLjEsLTEuNDcgMC4wMSwtMy42NSAwLjkyLC02LjA5IDAuNjMsMC4wNCAxLjI3LC0wLjA2IDEuODYsLTAuMzEgMC4zNSwwLjMxIDAuNywwLjYxIDEuMDksMC45MiAxLjMxLDEuMDQgMi42MiwxLjg1IDMuOSwyLjQ5IC0wLjA2LDAuNjUgMC4xLDEuMzIgMC41MiwxLjg4IDAuOSwxLjE3IDIuNTcsMS4zOSAzLjc0LDAuNDkgMC4yNCwtMC4xOCAwLjQzLC0wLjQxIDAuNTksLTAuNjUgMi4wOSwwLjQ3IDMuOTEsMC41NSA1LjI2LDAuNTUgMC4yLDAgMS4xNiwtMS4zMSAxLjcxLC0yLjExIC0wLjgyLDAuMTcgLTMuMjYsMC41IC02LjU5LC0wLjQ1IC0wLjA4LC0wLjM4IC0wLjIzLC0wLjc0IC0wLjQ4LC0xLjA3IC0wLjg0LC0xLjEgLTIuMzksLTEuMzUgLTMuNTQsLTAuNiAtMS4xNiwtMC42MyAtMi4zNywtMS40MiAtMy42MiwtMi40MSAtMC4yNiwtMC4yIC0wLjUsLTAuNCAtMC43MywtMC42IDAuNzYsLTEuMiAwLjg0LC0yLjc0IDAuMTcsLTQuMDQgMC4xNSwtMC4xNSAwLjMsLTAuMzEgMC40NiwtMC40NiAxLjI0LC0xLjE2IDIuNDEsLTIuMDggMy41LC0yLjgyIC0wLjA1LC0wLjA0IC0wLjA5LC0wLjA5IC0wLjEzLC0wLjEzIDAuMDQsMC4wNCAwLjA4LDAuMDggMC4xMywwLjEyIHYgMCBjIDEuNjcsMS41NSAzLjQ0LDMuMDIgNS4xMiw0LjMzIC0wLjQ0LDAuOTQgLTAuMzcsMi4wOCAwLjMsMi45NyB6Ii8+JiN4YTs8L3N2Zz4=;strokeColor=#A9C4EB;strokeWidth=1;" parent="ooYEH0mbtsRe8uLb8l4n-1" vertex="1">
          <mxGeometry x="212.88" y="1390" width="50" height="50" as="geometry" />
        </mxCell>
        <mxCell id="tDMd5CsiUgjFfo_qhA0A-76" value="Resource Group" style="aspect=fixed;html=1;points=[];align=center;image;fontSize=10;image=img/lib/azure2/general/Resource_Groups.svg;rounded=1;strokeWidth=1;" parent="ooYEH0mbtsRe8uLb8l4n-1" vertex="1">
          <mxGeometry x="-323.03000000000003" y="1773" width="49.94" height="47" as="geometry" />
        </mxCell>
        <mxCell id="tDMd5CsiUgjFfo_qhA0A-77" style="edgeStyle=orthogonalEdgeStyle;rounded=0;orthogonalLoop=1;jettySize=auto;html=1;strokeColor=#000000;strokeWidth=1;" parent="ooYEH0mbtsRe8uLb8l4n-1" source="tDMd5CsiUgjFfo_qhA0A-84" target="tDMd5CsiUgjFfo_qhA0A-86" edge="1">
          <mxGeometry relative="1" as="geometry">
            <Array as="points">
              <mxPoint x="-509" y="2179" />
            </Array>
          </mxGeometry>
        </mxCell>
        <mxCell id="tDMd5CsiUgjFfo_qhA0A-78" style="edgeStyle=orthogonalEdgeStyle;rounded=0;orthogonalLoop=1;jettySize=auto;html=1;entryX=-0.013;entryY=0.5;entryDx=0;entryDy=0;entryPerimeter=0;" parent="ooYEH0mbtsRe8uLb8l4n-1" source="tDMd5CsiUgjFfo_qhA0A-84" target="tDMd5CsiUgjFfo_qhA0A-156" edge="1">
          <mxGeometry relative="1" as="geometry">
            <Array as="points">
              <mxPoint x="-509" y="1415" />
            </Array>
          </mxGeometry>
        </mxCell>
        <mxCell id="tDMd5CsiUgjFfo_qhA0A-79" style="edgeStyle=orthogonalEdgeStyle;rounded=0;orthogonalLoop=1;jettySize=auto;html=1;entryX=0;entryY=0.25;entryDx=0;entryDy=0;" parent="ooYEH0mbtsRe8uLb8l4n-1" source="tDMd5CsiUgjFfo_qhA0A-84" target="tDMd5CsiUgjFfo_qhA0A-66" edge="1">
          <mxGeometry relative="1" as="geometry">
            <Array as="points">
              <mxPoint x="-509" y="1552" />
            </Array>
          </mxGeometry>
        </mxCell>
        <mxCell id="tDMd5CsiUgjFfo_qhA0A-80" style="edgeStyle=orthogonalEdgeStyle;rounded=0;orthogonalLoop=1;jettySize=auto;html=1;entryX=0;entryY=0.4;entryDx=0;entryDy=0;entryPerimeter=0;" parent="ooYEH0mbtsRe8uLb8l4n-1" source="tDMd5CsiUgjFfo_qhA0A-84" target="tDMd5CsiUgjFfo_qhA0A-71" edge="1">
          <mxGeometry relative="1" as="geometry">
            <Array as="points">
              <mxPoint x="-509" y="1600" />
            </Array>
          </mxGeometry>
        </mxCell>
        <mxCell id="tDMd5CsiUgjFfo_qhA0A-81" style="edgeStyle=orthogonalEdgeStyle;rounded=0;orthogonalLoop=1;jettySize=auto;html=1;entryX=0;entryY=0.25;entryDx=0;entryDy=0;" parent="ooYEH0mbtsRe8uLb8l4n-1" source="tDMd5CsiUgjFfo_qhA0A-84" target="tDMd5CsiUgjFfo_qhA0A-93" edge="1">
          <mxGeometry relative="1" as="geometry">
            <Array as="points">
              <mxPoint x="-509" y="2137" />
            </Array>
          </mxGeometry>
        </mxCell>
        <mxCell id="tDMd5CsiUgjFfo_qhA0A-82" style="edgeStyle=orthogonalEdgeStyle;rounded=0;orthogonalLoop=1;jettySize=auto;html=1;entryX=-0.002;entryY=0.61;entryDx=0;entryDy=0;entryPerimeter=0;" parent="ooYEH0mbtsRe8uLb8l4n-1" source="tDMd5CsiUgjFfo_qhA0A-84" target="tDMd5CsiUgjFfo_qhA0A-138" edge="1">
          <mxGeometry relative="1" as="geometry">
            <Array as="points">
              <mxPoint x="-509" y="2010" />
            </Array>
          </mxGeometry>
        </mxCell>
        <mxCell id="tDMd5CsiUgjFfo_qhA0A-83" style="edgeStyle=orthogonalEdgeStyle;rounded=0;orthogonalLoop=1;jettySize=auto;html=1;entryX=0.5;entryY=0;entryDx=0;entryDy=0;" parent="ooYEH0mbtsRe8uLb8l4n-1" source="tDMd5CsiUgjFfo_qhA0A-84" target="tDMd5CsiUgjFfo_qhA0A-143" edge="1">
          <mxGeometry relative="1" as="geometry" />
        </mxCell>
        <mxCell id="tDMd5CsiUgjFfo_qhA0A-84" value="Azure Pipelines" style="aspect=fixed;html=1;points=[];align=center;image;fontSize=12;image=img/lib/mscae/Azure_Pipelines.svg;strokeColor=#B3B3B3;strokeWidth=2;" parent="ooYEH0mbtsRe8uLb8l4n-1" vertex="1">
          <mxGeometry x="-534.14" y="1815" width="50" height="50" as="geometry" />
        </mxCell>
        <mxCell id="tDMd5CsiUgjFfo_qhA0A-85" style="edgeStyle=orthogonalEdgeStyle;rounded=0;orthogonalLoop=1;jettySize=auto;html=1;strokeColor=#000000;strokeWidth=1;endArrow=none;endFill=0;dashed=1;" parent="ooYEH0mbtsRe8uLb8l4n-1" source="tDMd5CsiUgjFfo_qhA0A-86" target="tDMd5CsiUgjFfo_qhA0A-93" edge="1">
          <mxGeometry relative="1" as="geometry">
            <Array as="points">
              <mxPoint x="-177.76" y="2175" />
              <mxPoint x="-177.76" y="2175" />
            </Array>
          </mxGeometry>
        </mxCell>
        <mxCell id="tDMd5CsiUgjFfo_qhA0A-86" value="Azure Container Registry" style="aspect=fixed;html=1;points=[];align=center;image;fontSize=12;image=img/lib/azure2/containers/Container_Registries.svg;strokeColor=#B3B3B3;strokeWidth=2;" parent="ooYEH0mbtsRe8uLb8l4n-1" vertex="1">
          <mxGeometry x="-220.88" y="2154" width="55.74" height="50" as="geometry" />
        </mxCell>
        <mxCell id="tDMd5CsiUgjFfo_qhA0A-87" value="Database PostgreSQL Service" style="aspect=fixed;html=1;points=[];align=center;image;fontSize=12;image=img/lib/azure2/databases/Azure_Database_PostgreSQL_Server.svg;strokeColor=#B3B3B3;strokeWidth=2;" parent="ooYEH0mbtsRe8uLb8l4n-1" vertex="1">
          <mxGeometry x="394.99999999999994" y="1725" width="48" height="64" as="geometry" />
        </mxCell>
        <mxCell id="tDMd5CsiUgjFfo_qhA0A-88" value="Cosmos DB" style="aspect=fixed;html=1;points=[];align=center;image;fontSize=12;image=img/lib/azure2/databases/Azure_Cosmos_DB.svg;strokeColor=#B3B3B3;strokeWidth=2;" parent="ooYEH0mbtsRe8uLb8l4n-1" vertex="1">
          <mxGeometry x="97.88000000000001" y="1725" width="64" height="64" as="geometry" />
        </mxCell>
        <mxCell id="tDMd5CsiUgjFfo_qhA0A-89" value="Cache for Redis" style="aspect=fixed;html=1;points=[];align=center;image;fontSize=12;image=img/lib/azure2/databases/Cache_Redis.svg;strokeColor=#B3B3B3;strokeWidth=2;" parent="ooYEH0mbtsRe8uLb8l4n-1" vertex="1">
          <mxGeometry x="211.13" y="1737" width="64" height="52" as="geometry" />
        </mxCell>
        <mxCell id="tDMd5CsiUgjFfo_qhA0A-90" style="edgeStyle=orthogonalEdgeStyle;rounded=0;orthogonalLoop=1;jettySize=auto;html=1;exitX=0.5;exitY=1;exitDx=0;exitDy=0;entryX=0.523;entryY=0.009;entryDx=0;entryDy=0;entryPerimeter=0;" parent="ooYEH0mbtsRe8uLb8l4n-1" source="tDMd5CsiUgjFfo_qhA0A-93" target="tDMd5CsiUgjFfo_qhA0A-107" edge="1">
          <mxGeometry relative="1" as="geometry" />
        </mxCell>
        <mxCell id="tDMd5CsiUgjFfo_qhA0A-92" style="edgeStyle=orthogonalEdgeStyle;rounded=0;orthogonalLoop=1;jettySize=auto;html=1;endArrow=classic;endFill=1;strokeWidth=1;" parent="ooYEH0mbtsRe8uLb8l4n-1" source="tDMd5CsiUgjFfo_qhA0A-93" target="tDMd5CsiUgjFfo_qhA0A-160" edge="1">
          <mxGeometry relative="1" as="geometry">
            <Array as="points">
              <mxPoint x="-145.88" y="2240" />
            </Array>
          </mxGeometry>
        </mxCell>
        <mxCell id="tDMd5CsiUgjFfo_qhA0A-93" value="" style="rounded=1;whiteSpace=wrap;html=1;strokeWidth=1;align=left;arcSize=5;" parent="ooYEH0mbtsRe8uLb8l4n-1" vertex="1">
          <mxGeometry x="-42.50000000000001" y="2099.5" width="540" height="150.5" as="geometry" />
        </mxCell>
        <mxCell id="tDMd5CsiUgjFfo_qhA0A-94" value="Azure Kubernetes Services" style="aspect=fixed;html=1;points=[];align=center;image;fontSize=12;image=img/lib/azure2/containers/Kubernetes_Services.svg;strokeColor=#B3B3B3;strokeWidth=2;" parent="ooYEH0mbtsRe8uLb8l4n-1" vertex="1">
          <mxGeometry x="207.5" y="2110" width="49.87" height="44" as="geometry" />
        </mxCell>
        <mxCell id="tDMd5CsiUgjFfo_qhA0A-95" style="edgeStyle=orthogonalEdgeStyle;rounded=0;orthogonalLoop=1;jettySize=auto;html=1;entryX=0.5;entryY=0;entryDx=0;entryDy=0;strokeWidth=1;" parent="ooYEH0mbtsRe8uLb8l4n-1" source="tDMd5CsiUgjFfo_qhA0A-97" target="tDMd5CsiUgjFfo_qhA0A-93" edge="1">
          <mxGeometry relative="1" as="geometry" />
        </mxCell>
        <mxCell id="tDMd5CsiUgjFfo_qhA0A-96" style="edgeStyle=orthogonalEdgeStyle;rounded=0;orthogonalLoop=1;jettySize=auto;html=1;entryX=1.01;entryY=0.51;entryDx=0;entryDy=0;entryPerimeter=0;" parent="ooYEH0mbtsRe8uLb8l4n-1" source="tDMd5CsiUgjFfo_qhA0A-97" target="tDMd5CsiUgjFfo_qhA0A-170" edge="1">
          <mxGeometry relative="1" as="geometry">
            <Array as="points">
              <mxPoint x="228" y="1915" />
            </Array>
          </mxGeometry>
        </mxCell>
        <mxCell id="tDMd5CsiUgjFfo_qhA0A-97" value="Azure Application Gateway Ingress Controller" style="shape=image;verticalLabelPosition=bottom;labelBackgroundColor=#ffffff;verticalAlign=top;aspect=fixed;imageAspect=0;image=data:image/svg+xml,PHN2ZyB4bWxuczpkYz0iaHR0cDovL3B1cmwub3JnL2RjL2VsZW1lbnRzLzEuMS8iIHhtbG5zOmNjPSJodHRwOi8vY3JlYXRpdmVjb21tb25zLm9yZy9ucyMiIHhtbG5zOnJkZj0iaHR0cDovL3d3dy53My5vcmcvMTk5OS8wMi8yMi1yZGYtc3ludGF4LW5zIyIgeG1sbnM6c3ZnPSJodHRwOi8vd3d3LnczLm9yZy8yMDAwL3N2ZyIgeG1sbnM9Imh0dHA6Ly93d3cudzMub3JnLzIwMDAvc3ZnIiB4bWxuczpzb2RpcG9kaT0iaHR0cDovL3NvZGlwb2RpLnNvdXJjZWZvcmdlLm5ldC9EVEQvc29kaXBvZGktMC5kdGQiIHhtbG5zOmlua3NjYXBlPSJodHRwOi8vd3d3Lmlua3NjYXBlLm9yZy9uYW1lc3BhY2VzL2lua3NjYXBlIiB2ZXJzaW9uPSIxLjEiIGlkPSJzdmc0OTI1OSIgaW5rc2NhcGU6dmVyc2lvbj0iMC45Mi4zICgyNDA1NTQ2LCAyMDE4LTAzLTExKSIgc29kaXBvZGk6ZG9jbmFtZT0iYXBwbGljYXRpb25fZ2F0ZXdheS5zdmciIHg9IjBweCIgeT0iMHB4IiB2aWV3Qm94PSIwIDAgMTAwLjMxIDEwMC4xMSIgeG1sOnNwYWNlPSJwcmVzZXJ2ZSIgd2lkdGg9IjEwMC4zMSIgaGVpZ2h0PSIxMDAuMTEiPjxtZXRhZGF0YSBpZD0ibWV0YWRhdGExNjMzNSI+PHJkZjpSREY+PGNjOldvcmsgcmRmOmFib3V0PSIiPjxkYzpmb3JtYXQ+aW1hZ2Uvc3ZnK3htbDwvZGM6Zm9ybWF0PjxkYzp0eXBlIHJkZjpyZXNvdXJjZT0iaHR0cDovL3B1cmwub3JnL2RjL2RjbWl0eXBlL1N0aWxsSW1hZ2UiLz48ZGM6dGl0bGUvPjwvY2M6V29yaz48L3JkZjpSREY+PC9tZXRhZGF0YT48ZGVmcyBpZD0iZGVmczE2MzMzIi8+JiN4YTs8ZmlsdGVyIGlkPSJmaWx0ZXJfMiI+JiN4YTsJPGZlR2F1c3NpYW5CbHVyIGlkPSJmZUdhdXNzaWFuQmx1cjQ5MTg0IiBzdGREZXZpYXRpb249IjIiLz4mI3hhOzwvZmlsdGVyPiYjeGE7PHNvZGlwb2RpOm5hbWVkdmlldyBib3JkZXJjb2xvcj0iIzY2NjY2NiIgYm9yZGVyb3BhY2l0eT0iMSIgZml0LW1hcmdpbi1ib3R0b209IjAiIGZpdC1tYXJnaW4tbGVmdD0iMCIgZml0LW1hcmdpbi1yaWdodD0iMCIgZml0LW1hcmdpbi10b3A9IjAiIGdyaWR0b2xlcmFuY2U9IjEwIiBndWlkZXRvbGVyYW5jZT0iMTAiIGlkPSJuYW1lZHZpZXc0OTI2MSIgaW5rc2NhcGU6Y3VycmVudC1sYXllcj0ic3ZnNDkyNTkiIGlua3NjYXBlOmN4PSIzNy42OTE3NzEiIGlua3NjYXBlOmN5PSI0OC40MTY5MjYiIGlua3NjYXBlOnBhZ2VvcGFjaXR5PSIwIiBpbmtzY2FwZTpwYWdlc2hhZG93PSIyIiBpbmtzY2FwZTp3aW5kb3ctaGVpZ2h0PSIxMDE3IiBpbmtzY2FwZTp3aW5kb3ctbWF4aW1pemVkPSIxIiBpbmtzY2FwZTp3aW5kb3ctd2lkdGg9IjE5MjAiIGlua3NjYXBlOndpbmRvdy14PSItOCIgaW5rc2NhcGU6d2luZG93LXk9Ii04IiBpbmtzY2FwZTp6b29tPSI1LjIxOTMxOTgiIG9iamVjdHRvbGVyYW5jZT0iMTAiIHBhZ2Vjb2xvcj0iI2ZmZmZmZiIgc2hvd2dyaWQ9ImZhbHNlIj4mI3hhOwk8L3NvZGlwb2RpOm5hbWVkdmlldz4mI3hhOyYjeGE7PHBhdGggaWQ9InBhdGg0OTE5NyIgaW5rc2NhcGU6Y29ubmVjdG9yLWN1cnZhdHVyZT0iMCIgc3R5bGU9ImZpbGw6IzdmYmEwMCIgZD0ibSA1MC4wNSwxMDAuMTEgYyAtMi40LDAgLTQuOCwtMS4wMSAtNi42LC0yLjgxIEwgMi44LDU2LjY2IEMgMSw1NC44NiAwLDUyLjQ2IDAsNTAuMDUgYyAwLC0yLjQgMSwtNC44IDIuOCwtNi42IEwgNDMuNDUsMi44IEMgNDUuMjUsMSA0Ny42NSwwIDUwLjA1LDAgYyAyLjQxLDAgNC44MSwxIDYuNjEsMi44IEwgOTcuNSw0My42NSBjIDEuOCwxLjggMi44MSw0IDIuODEsNi42IDAsMi40MSAtMS4wMSw0LjgxIC0yLjgxLDYuNjEgTCA1Ni42Niw5Ny4zIGMgLTEuOCwxLjggLTQuMiwyLjgxIC02LjYxLDIuODEgeiIvPiYjeGE7JiN4YTs8cGF0aCBpZD0icGF0aDQ5MjA1IiBpbmtzY2FwZTpjb25uZWN0b3ItY3VydmF0dXJlPSIwIiBzdHlsZT0iZmlsbDojZmZmZmZmIiBkPSJtIDU5LjU0LDM3LjIgYyAtMi44LDIuMTQgLTYuMDksMy4xOSAtOS4zNywzLjE5IC00LjY0LDAgLTkuMjQsLTIuMDkgLTEyLjI3LC02LjA2IC01LjE5LC02Ljc3IC0zLjkxLC0xNi40NiAyLjg3LC0yMS42NSAyLjgsLTIuMTUgNi4xLC0zLjE4IDkuMzcsLTMuMTggNC42NSwwIDkuMjQsMi4wOSAxMi4yOCw2LjA2IDUuMTgsNi43OCAzLjg5LDE2LjQ2IC0yLjg4LDIxLjY0IHoiLz4mI3hhOyYjeGE7PHBhdGggaWQ9InBhdGg0OTIxMyIgaW5rc2NhcGU6Y29ubmVjdG9yLWN1cnZhdHVyZT0iMCIgc3R5bGU9ImZpbGw6I2ZmZmZmZjtmaWxsLW9wYWNpdHk6MC4xNSIgZD0iTSA1Ni42NiwyLjggQyA1NC44NiwxIDUyLjQ2LDAgNTAuMDUsMCBjIC0yLjQsMCAtNC44LDEgLTYuNiwyLjggTCAyLjgsNDMuNDUgQyAxLDQ1LjI1IDAsNDcuNjUgMCw1MC4wNSBjIDAsMi40MSAxLDQuODEgMi44LDYuNjEgTCAyNS44Myw3OS42OSA2OS4yNywxNS40MiBaIi8+JiN4YTsmI3hhOzxwYXRoIGlkPSJwYXRoNDkyMjEiIGlua3NjYXBlOmNvbm5lY3Rvci1jdXJ2YXR1cmU9IjAiIHN0eWxlPSJmaWxsOiNmZmZmZmYiIGQ9Ik0gNTAuMDUsOTEuMyA2My4yNyw3OC4wOCBIIDUzLjg2IFYgMzguMzQgaCAtNy44MSB2IDM5Ljc0IGggLTkuMjEgeiIvPiYjeGE7JiN4YTs8cGF0aCBpZD0icGF0aDQ5MjI5IiBpbmtzY2FwZTpjb25uZWN0b3ItY3VydmF0dXJlPSIwIiBzdHlsZT0iZmlsbDojZmZmZmZmIiBkPSJNIDc4Ljc0LDY3LjA0IFYgNDguMzUgbCAtNi41MSw2LjUxIC0xNi45MSwtMTYuOTEgLTUuNjYsNS42NyAxNi45MSwxNi45IC02LjUyLDYuNTIgeiIvPiYjeGE7JiN4YTs8cGF0aCBpZD0icGF0aDQ5MjM3IiBpbmtzY2FwZTpjb25uZWN0b3ItY3VydmF0dXJlPSIwIiBzdHlsZT0iZmlsbDojZmZmZmZmIiBkPSJNIDIxLjM5LDY3LjExIEggNDAuMDggTCAzMy41Niw2MC41OSA1MC45NSw0My4yMSA0NS4yOCwzNy41NSAyNy45LDU0LjkzIDIxLjM5LDQ4LjQyIFoiLz4mI3hhOyYjeGE7PHBhdGggaWQ9InBhdGg0OTI0NSIgaW5rc2NhcGU6Y29ubmVjdG9yLWN1cnZhdHVyZT0iMCIgc3R5bGU9ImZpbGw6IzU5YjRkOSIgZD0ibSA1OC4yOSwzNS41OCBjIC0yLjQyLDEuODUgLTUuMjgsMi43NiAtOC4xMiwyLjc2IC00LjAzLDAgLTguMDEsLTEuODEgLTEwLjY0LC01LjI2IC00LjUsLTUuODcgLTMuMzksLTE0LjI3IDIuNDksLTE4Ljc3IDIuNDMsLTEuODYgNS4yOSwtMi43NSA4LjEyLC0yLjc1IDQuMDMsMCA4LjAyLDEuOCAxMC42NSw1LjI1IDQuNSw1Ljg3IDMuMzgsMTQuMjcgLTIuNSwxOC43NyB6Ii8+JiN4YTsmI3hhOzxwYXRoIGlkPSJwYXRoNDkyNTMiIGlua3NjYXBlOmNvbm5lY3Rvci1jdXJ2YXR1cmU9IjAiIHN0eWxlPSJmaWxsOiNmZmZmZmYiIGQ9Im0gNTUuODMsMjcuMyBjIDAuOTgsMS4yNyAyLjc4LDEuNDkgNC4wNCwwLjU0IDAuMDcsLTAuMDUgMC4xMiwtMC4xMiAwLjE4LC0wLjE3IDEuMjksMC45MSAyLjE4LDEuNTEgMi42OSwxLjg1IDAuMTUsLTAuMzkgMC4yNSwtMC43NiAwLjM2LC0xLjE1IC0wLjUzLC0wLjM5IC0xLjI2LC0wLjk1IC0yLjMsLTEuNzkgMC4zNCwtMC45IDAuMjMsLTEuOTUgLTAuMzksLTIuNzggLTAuOSwtMS4xNSAtMi40OCwtMS40NSAtMy43MiwtMC43MyAtMS4zNiwtMS4yMyAtMi44NiwtMi42MyAtNC40NCwtNC4yIDQuOTEsLTIuNjQgOC40LC0yLjI1IDguNCwtMi4yNSAtMC41OSwtMC43NSAtMS4yNCwtMS40IC0xLjkzLC0xLjk4IC0yLjA3LC0wLjMyIC01LjI5LC0wLjI5IC04Ljk3LDEuNjcgViAxNi4zIGMgLTEuMjIsLTEuMjggLTIuNDcsLTIuNjUgLTMuNzQsLTQuMTMgLTAuNiwwLjIgLTEuMiwwLjQ0IC0xLjc3LDAuNzMgMC45MywxLjUzIDIuMiwzLjA3IDMuNjIsNC41OCAwLDAuMDEgMCwwLjAxIDAuMDEsMC4wMSAtMS4xOSwwLjgzIC0yLjUxLDEuOTQgLTMuNzIsMy4yMyAtMC4xNiwwLjE2IC0wLjMxLDAuMzMgLTAuNDUsMC40OSAtMC43MywtMC4xNSAtMS41LC0wLjEgLTIuMjEsMC4xNSAtMS4yMSwtMi42MSAtMS4xMiwtNC43MSAtMC45MiwtNS44IC0wLjUzLDAuNTUgLTEuMDIsMS4xMyAtMS40NSwxLjc1IC0wLjMxLDEuMyAtMC40LDMuMTYgMC41Myw1LjQxIC0xLjA4LDEuNDIgLTEuMTMsMy40MiAwLDQuOSAwLjEsMC4xMiAwLjIsMC4yNCAwLjMsMC4zNSAtMC40OSwxLjY4IC0wLjcxLDMuMyAtMC43OCw0LjY5IDAuMTIsMC4xNyAwLjEyLDAuMzEgMC4yNSwwLjQ4IDAuNjQsMC44MyAxLjQ1LDEuNTIgMi4yMywyLjE1IC0wLjEsLTEuNDcgMC4wMSwtMy42NSAwLjkyLC02LjA5IDAuNjMsMC4wNCAxLjI3LC0wLjA2IDEuODYsLTAuMzEgMC4zNSwwLjMxIDAuNywwLjYxIDEuMDksMC45MiAxLjMxLDEuMDQgMi42MiwxLjg1IDMuOSwyLjQ5IC0wLjA2LDAuNjUgMC4xLDEuMzIgMC41MiwxLjg4IDAuOSwxLjE3IDIuNTcsMS4zOSAzLjc0LDAuNDkgMC4yNCwtMC4xOCAwLjQzLC0wLjQxIDAuNTksLTAuNjUgMi4wOSwwLjQ3IDMuOTEsMC41NSA1LjI2LDAuNTUgMC4yLDAgMS4xNiwtMS4zMSAxLjcxLC0yLjExIC0wLjgyLDAuMTcgLTMuMjYsMC41IC02LjU5LC0wLjQ1IC0wLjA4LC0wLjM4IC0wLjIzLC0wLjc0IC0wLjQ4LC0xLjA3IC0wLjg0LC0xLjEgLTIuMzksLTEuMzUgLTMuNTQsLTAuNiAtMS4xNiwtMC42MyAtMi4zNywtMS40MiAtMy42MiwtMi40MSAtMC4yNiwtMC4yIC0wLjUsLTAuNCAtMC43MywtMC42IDAuNzYsLTEuMiAwLjg0LC0yLjc0IDAuMTcsLTQuMDQgMC4xNSwtMC4xNSAwLjMsLTAuMzEgMC40NiwtMC40NiAxLjI0LC0xLjE2IDIuNDEsLTIuMDggMy41LC0yLjgyIC0wLjA1LC0wLjA0IC0wLjA5LC0wLjA5IC0wLjEzLC0wLjEzIDAuMDQsMC4wNCAwLjA4LDAuMDggMC4xMywwLjEyIHYgMCBjIDEuNjcsMS41NSAzLjQ0LDMuMDIgNS4xMiw0LjMzIC0wLjQ0LDAuOTQgLTAuMzcsMi4wOCAwLjMsMi45NyB6Ii8+JiN4YTs8L3N2Zz4=;strokeColor=#A9C4EB;strokeWidth=1;" parent="ooYEH0mbtsRe8uLb8l4n-1" vertex="1">
          <mxGeometry x="202.5" y="1980" width="50" height="50" as="geometry" />
        </mxCell>
        <mxCell id="tDMd5CsiUgjFfo_qhA0A-98" value="Resource Group" style="aspect=fixed;html=1;points=[];align=center;image;fontSize=10;image=img/lib/azure2/general/Resource_Groups.svg;rounded=1;strokeWidth=1;" parent="ooYEH0mbtsRe8uLb8l4n-1" vertex="1">
          <mxGeometry x="-320.87999999999994" y="2347.5" width="49.94" height="47" as="geometry" />
        </mxCell>
        <mxCell id="tDMd5CsiUgjFfo_qhA0A-99" value="Resource Group" style="aspect=fixed;html=1;points=[];align=center;image;fontSize=10;image=img/lib/azure2/general/Resource_Groups.svg;rounded=1;strokeWidth=1;" parent="ooYEH0mbtsRe8uLb8l4n-1" vertex="1">
          <mxGeometry x="-819.3299999999999" y="1450" width="49.94" height="47" as="geometry" />
        </mxCell>
        <mxCell id="tDMd5CsiUgjFfo_qhA0A-100" value="Microsoft Azure" style="text;html=1;strokeColor=none;fillColor=none;align=center;verticalAlign=middle;whiteSpace=wrap;rounded=0;fontStyle=1;fontSize=14;fontColor=#808080;" parent="ooYEH0mbtsRe8uLb8l4n-1" vertex="1">
          <mxGeometry x="-781.01" y="1284" width="118" height="20" as="geometry" />
        </mxCell>
        <mxCell id="tDMd5CsiUgjFfo_qhA0A-101" value="" style="shape=image;verticalLabelPosition=bottom;labelBackgroundColor=#ffffff;verticalAlign=top;aspect=fixed;imageAspect=0;image=data:image/svg+xml,PHN2ZyB4bWxuczpkYz0iaHR0cDovL3B1cmwub3JnL2RjL2VsZW1lbnRzLzEuMS8iIHhtbG5zOmNjPSJodHRwOi8vY3JlYXRpdmVjb21tb25zLm9yZy9ucyMiIHhtbG5zOnJkZj0iaHR0cDovL3d3dy53My5vcmcvMTk5OS8wMi8yMi1yZGYtc3ludGF4LW5zIyIgeG1sbnM6c3ZnPSJodHRwOi8vd3d3LnczLm9yZy8yMDAwL3N2ZyIgeG1sbnM9Imh0dHA6Ly93d3cudzMub3JnLzIwMDAvc3ZnIiB4bWxuczpzb2RpcG9kaT0iaHR0cDovL3NvZGlwb2RpLnNvdXJjZWZvcmdlLm5ldC9EVEQvc29kaXBvZGktMC5kdGQiIHhtbG5zOmlua3NjYXBlPSJodHRwOi8vd3d3Lmlua3NjYXBlLm9yZy9uYW1lc3BhY2VzL2lua3NjYXBlIiB2ZXJzaW9uPSIxLjEiIGlkPSJzdmc3NzU3OSIgaW5rc2NhcGU6dmVyc2lvbj0iMC45Mi4zICgyNDA1NTQ2LCAyMDE4LTAzLTExKSIgc29kaXBvZGk6ZG9jbmFtZT0ibWljcm9zb2Z0X2F6dXJlLnN2ZyIgeD0iMHB4IiB5PSIwcHgiIHZpZXdCb3g9IjAgMCA2Mi43NjMxODQgNDguNDc5OTk5IiB4bWw6c3BhY2U9InByZXNlcnZlIiB3aWR0aD0iNjIuNzYzMTg0IiBoZWlnaHQ9IjQ4LjQ4Ij48bWV0YWRhdGEgaWQ9Im1ldGFkYXRhNjc4MCI+PHJkZjpSREY+PGNjOldvcmsgcmRmOmFib3V0PSIiPjxkYzpmb3JtYXQ+aW1hZ2Uvc3ZnK3htbDwvZGM6Zm9ybWF0PjxkYzp0eXBlIHJkZjpyZXNvdXJjZT0iaHR0cDovL3B1cmwub3JnL2RjL2RjbWl0eXBlL1N0aWxsSW1hZ2UiLz48ZGM6dGl0bGUvPjwvY2M6V29yaz48L3JkZjpSREY+PC9tZXRhZGF0YT48ZGVmcyBpZD0iZGVmczY3NzgiPiYjeGE7CSYjeGE7CSYjeGE7JiN4YTsJCSYjeGE7CQkmI3hhOwkJJiN4YTsJJiN4YTsJCQkmI3hhOwkJPC9kZWZzPiYjeGE7PHNvZGlwb2RpOm5hbWVkdmlldyBib3JkZXJjb2xvcj0iIzY2NjY2NiIgYm9yZGVyb3BhY2l0eT0iMSIgZml0LW1hcmdpbi1ib3R0b209IjAiIGZpdC1tYXJnaW4tbGVmdD0iMCIgZml0LW1hcmdpbi1yaWdodD0iMCIgZml0LW1hcmdpbi10b3A9IjAiIGdyaWR0b2xlcmFuY2U9IjEwIiBndWlkZXRvbGVyYW5jZT0iMTAiIGlkPSJuYW1lZHZpZXc3NzU4MSIgaW5rc2NhcGU6Y3VycmVudC1sYXllcj0ic3ZnNzc1NzkiIGlua3NjYXBlOmN4PSIzOC4zNTE3MDUiIGlua3NjYXBlOmN5PSIxMS4wODk3MDciIGlua3NjYXBlOnBhZ2VvcGFjaXR5PSIwIiBpbmtzY2FwZTpwYWdlc2hhZG93PSIyIiBpbmtzY2FwZTp3aW5kb3ctaGVpZ2h0PSIxMDE3IiBpbmtzY2FwZTp3aW5kb3ctbWF4aW1pemVkPSIxIiBpbmtzY2FwZTp3aW5kb3ctd2lkdGg9IjE5MjAiIGlua3NjYXBlOndpbmRvdy14PSItOCIgaW5rc2NhcGU6d2luZG93LXk9Ii04IiBpbmtzY2FwZTp6b29tPSI4LjQzOTExODIiIG9iamVjdHRvbGVyYW5jZT0iMTAiIHBhZ2Vjb2xvcj0iI2ZmZmZmZiIgc2hvd2dyaWQ9ImZhbHNlIj4mI3hhOwk8L3NvZGlwb2RpOm5hbWVkdmlldz4mI3hhOzxwYXRoIGlkPSJwYXRoNzc1NzQiIGlua3NjYXBlOmNvbm5lY3Rvci1jdXJ2YXR1cmU9IjAiIHN0eWxlPSJmaWxsOiMyMDc1YjgiIGQ9Im0gMTUuNjgyOTQ5LDQ4LjM2IGMgMC4wNywtMC4wNyA2LjQsLTEuMjMgMTQuMDYsLTIuNTcgNy42NSwtMS4zNSAxMy45NywtMi41IDE0LjAzLC0yLjU2IDAuMTIsLTAuMTEgLTAuNzUsLTEuMTcgLTEwLjIyLC0xMi40NiAtMi41MiwtMi45OSAtNC42MywtNS41NiAtNC43LC01LjcgLTAuMDksLTAuMTkgMC44OSwtMy4wNCAzLjczLC0xMC44MyAyLjExLC01LjgxIDMuODcsLTEwLjY1IDMuOTEsLTEwLjc1IDAuMDMsLTAuMDkgMC4xMywtMC4xNyAwLjIyLC0wLjE3IDAuMTksMCAyNi4xNCw0NC45MSAyNi4wNSw0NS4wNiAtMC4wNCwwLjA2IC0xMC42OCwwLjEgLTIzLjY0LDAuMSAtMTMuOTEsMCAtMjMuNTIsLTAuMDUgLTIzLjQ0LC0wLjEyIHogTSAwLjAwMjk0OTA1LDQzLjAxIGMgLTAuMDUsLTAuMTMgMC41NCwtMS4yOSAxLjQ0OTk5OTk1LC0yLjg4IDAuODQsLTEuNDYgNC40MjAwMDA0LC03LjY2IDcuOTUwMDAwNCwtMTMuNzcgbCA2LjQwOTk5OTYsLTExLjEgOS4wOCwtNy42MyBjIDQuOTksLTQuMTkgOS4xNSwtNy42MyA5LjI0LC03LjYzIDAuMSwwIDAuMTMsMC4wOSAwLjA4LDAuMjQgLTAuNDcsMS4yNCAtMTkuOTEsNDIuNjggLTIwLjA4LDQyLjgxIC0wLjE5LDAuMTMgLTEuODQsMC4xNyAtNy4xNDk5OTk2LDAuMTcgLTYuMDcwMDAwMzUsMCAtNi45MTAwMDAzNSwtMC4wMyAtNi45ODAwMDAzNSwtMC4yMSB6Ii8+JiN4YTs8L3N2Zz4=;dashed=1;strokeColor=#A9C4EB;strokeWidth=2;" parent="ooYEH0mbtsRe8uLb8l4n-1" vertex="1">
          <mxGeometry x="-852.76" y="1270" width="63" height="48" as="geometry" />
        </mxCell>
        <mxCell id="tDMd5CsiUgjFfo_qhA0A-102" style="edgeStyle=orthogonalEdgeStyle;rounded=0;orthogonalLoop=1;jettySize=auto;html=1;strokeColor=#000000;strokeWidth=1;" parent="ooYEH0mbtsRe8uLb8l4n-1" source="tDMd5CsiUgjFfo_qhA0A-156" target="tDMd5CsiUgjFfo_qhA0A-75" edge="1">
          <mxGeometry relative="1" as="geometry">
            <mxPoint x="-80" y="1415" as="sourcePoint" />
          </mxGeometry>
        </mxCell>
        <mxCell id="tDMd5CsiUgjFfo_qhA0A-103" style="edgeStyle=orthogonalEdgeStyle;rounded=0;orthogonalLoop=1;jettySize=auto;html=1;entryX=0;entryY=0.5;entryDx=0;entryDy=0;strokeColor=#000000;strokeWidth=1;" parent="ooYEH0mbtsRe8uLb8l4n-1" target="tDMd5CsiUgjFfo_qhA0A-97" edge="1">
          <mxGeometry relative="1" as="geometry">
            <mxPoint x="-80.88000000000011" y="2005" as="sourcePoint" />
          </mxGeometry>
        </mxCell>
        <mxCell id="tDMd5CsiUgjFfo_qhA0A-106" value="Storage Account" style="aspect=fixed;html=1;points=[];align=center;image;fontSize=12;image=img/lib/azure2/storage/Storage_Accounts.svg;rounded=1;strokeColor=#000000;strokeWidth=1;" parent="ooYEH0mbtsRe8uLb8l4n-1" vertex="1">
          <mxGeometry x="-1.5599999999999952" y="1739" width="65" height="52" as="geometry" />
        </mxCell>
        <mxCell id="tDMd5CsiUgjFfo_qhA0A-107" value="" style="rounded=0;whiteSpace=wrap;html=1;strokeWidth=1;align=left;" parent="ooYEH0mbtsRe8uLb8l4n-1" vertex="1">
          <mxGeometry x="-49.09" y="2289" width="530" height="110" as="geometry" />
        </mxCell>
        <mxCell id="tDMd5CsiUgjFfo_qhA0A-108" value="Database PostgreSQL Service" style="aspect=fixed;html=1;points=[];align=center;image;fontSize=12;image=img/lib/azure2/databases/Azure_Database_PostgreSQL_Server.svg;strokeColor=#B3B3B3;strokeWidth=2;" parent="ooYEH0mbtsRe8uLb8l4n-1" vertex="1">
          <mxGeometry x="368.12" y="2304" width="48" height="64" as="geometry" />
        </mxCell>
        <mxCell id="tDMd5CsiUgjFfo_qhA0A-109" value="Cosmos DB" style="aspect=fixed;html=1;points=[];align=center;image;fontSize=12;image=img/lib/azure2/databases/Azure_Cosmos_DB.svg;strokeColor=#B3B3B3;strokeWidth=2;" parent="ooYEH0mbtsRe8uLb8l4n-1" vertex="1">
          <mxGeometry x="83.56000000000002" y="2304" width="64" height="64" as="geometry" />
        </mxCell>
        <mxCell id="tDMd5CsiUgjFfo_qhA0A-110" value="Cache for Redis" style="aspect=fixed;html=1;points=[];align=center;image;fontSize=12;image=img/lib/azure2/databases/Cache_Redis.svg;strokeColor=#B3B3B3;strokeWidth=2;" parent="ooYEH0mbtsRe8uLb8l4n-1" vertex="1">
          <mxGeometry x="193.37" y="2318" width="64" height="52" as="geometry" />
        </mxCell>
        <mxCell id="tDMd5CsiUgjFfo_qhA0A-113" value="Storage Account" style="aspect=fixed;html=1;points=[];align=center;image;fontSize=12;image=img/lib/azure2/storage/Storage_Accounts.svg;rounded=1;strokeColor=#000000;strokeWidth=1;" parent="ooYEH0mbtsRe8uLb8l4n-1" vertex="1">
          <mxGeometry x="-25.62" y="2314" width="65" height="52" as="geometry" />
        </mxCell>
        <mxCell id="tDMd5CsiUgjFfo_qhA0A-116" value="SYSTEM&lt;br&gt;Node Pool" style="rounded=0;whiteSpace=wrap;html=1;strokeWidth=1;align=center;verticalAlign=top;" parent="ooYEH0mbtsRe8uLb8l4n-1" vertex="1">
          <mxGeometry x="11.23" y="1590" width="111.56" height="80" as="geometry" />
        </mxCell>
        <mxCell id="tDMd5CsiUgjFfo_qhA0A-117" value="DEV&lt;br&gt;Node Pool" style="rounded=0;whiteSpace=wrap;html=1;strokeWidth=1;align=center;verticalAlign=top;" parent="ooYEH0mbtsRe8uLb8l4n-1" vertex="1">
          <mxGeometry x="142.23" y="1590" width="105.56" height="80" as="geometry" />
        </mxCell>
        <mxCell id="tDMd5CsiUgjFfo_qhA0A-118" value="QA&lt;br&gt;Node Pool" style="rounded=0;whiteSpace=wrap;html=1;strokeWidth=1;align=center;verticalAlign=top;" parent="ooYEH0mbtsRe8uLb8l4n-1" vertex="1">
          <mxGeometry x="264.73" y="1590" width="98.06" height="80" as="geometry" />
        </mxCell>
        <mxCell id="tDMd5CsiUgjFfo_qhA0A-119" value="STAGE&lt;br&gt;Node Pool" style="rounded=0;whiteSpace=wrap;html=1;strokeWidth=1;align=center;verticalAlign=top;" parent="ooYEH0mbtsRe8uLb8l4n-1" vertex="1">
          <mxGeometry x="381.79" y="1590" width="100" height="80" as="geometry" />
        </mxCell>
        <mxCell id="tDMd5CsiUgjFfo_qhA0A-137" style="edgeStyle=orthogonalEdgeStyle;rounded=0;orthogonalLoop=1;jettySize=auto;html=1;entryX=0.012;entryY=0.531;entryDx=0;entryDy=0;entryPerimeter=0;" parent="ooYEH0mbtsRe8uLb8l4n-1" source="tDMd5CsiUgjFfo_qhA0A-138" target="tDMd5CsiUgjFfo_qhA0A-170" edge="1">
          <mxGeometry relative="1" as="geometry">
            <Array as="points">
              <mxPoint x="-112" y="1916" />
            </Array>
          </mxGeometry>
        </mxCell>
        <mxCell id="tDMd5CsiUgjFfo_qhA0A-138" value="Static Apps" style="aspect=fixed;html=1;points=[];align=center;image;fontSize=12;image=img/lib/azure2/preview/Static_Apps.svg;rounded=1;strokeColor=#999999;strokeWidth=4;fillColor=#D4E1F5;" parent="ooYEH0mbtsRe8uLb8l4n-1" vertex="1">
          <mxGeometry x="-140.88" y="1982.24" width="56.89" height="45.51" as="geometry" />
        </mxCell>
        <mxCell id="tDMd5CsiUgjFfo_qhA0A-141" value="Azure Monitor" style="aspect=fixed;html=1;points=[];align=center;image;fontSize=12;image=img/lib/azure2/management_governance/Monitor.svg;strokeColor=#B3B3B3;strokeWidth=2;" parent="ooYEH0mbtsRe8uLb8l4n-1" vertex="1">
          <mxGeometry x="-833.1300000000002" y="2349" width="50" height="50" as="geometry" />
        </mxCell>
        <mxCell id="tDMd5CsiUgjFfo_qhA0A-142" value="Azure Cost Billing Management" style="aspect=fixed;html=1;points=[];align=center;image;fontSize=12;image=img/lib/azure2/general/Cost_Management_and_Billing.svg;strokeColor=#B3B3B3;strokeWidth=2;" parent="ooYEH0mbtsRe8uLb8l4n-1" vertex="1">
          <mxGeometry x="-677.0400000000001" y="2349" width="50" height="50" as="geometry" />
        </mxCell>
        <mxCell id="tDMd5CsiUgjFfo_qhA0A-143" value="" style="shape=image;verticalLabelPosition=bottom;labelBackgroundColor=#ffffff;verticalAlign=top;aspect=fixed;imageAspect=0;image=https://congdonglinux.com/wp-content/uploads/2020/11/Terraform.png;imageBorder=#E6E6E6;" parent="ooYEH0mbtsRe8uLb8l4n-1" vertex="1">
          <mxGeometry x="-569.13" y="2261" width="119.99" height="60" as="geometry" />
        </mxCell>
        <mxCell id="tDMd5CsiUgjFfo_qhA0A-144" style="edgeStyle=orthogonalEdgeStyle;rounded=0;orthogonalLoop=1;jettySize=auto;html=1;endArrow=none;endFill=0;strokeColor=#000000;strokeWidth=1;dashed=1;" parent="ooYEH0mbtsRe8uLb8l4n-1" source="tDMd5CsiUgjFfo_qhA0A-145" target="tDMd5CsiUgjFfo_qhA0A-143" edge="1">
          <mxGeometry relative="1" as="geometry" />
        </mxCell>
        <mxCell id="tDMd5CsiUgjFfo_qhA0A-145" value="" style="aspect=fixed;html=1;points=[];align=center;image;fontSize=12;image=img/lib/azure2/general/Powershell.svg;rounded=1;strokeColor=#999999;strokeWidth=4;fillColor=#D4E1F5;" parent="ooYEH0mbtsRe8uLb8l4n-1" vertex="1">
          <mxGeometry x="-541.64" y="2359" width="65" height="52" as="geometry" />
        </mxCell>
        <mxCell id="tDMd5CsiUgjFfo_qhA0A-146" value="Subscription&lt;br&gt;NO_PRODUCTIVO" style="aspect=fixed;html=1;points=[];align=center;image;fontSize=11;image=img/lib/mscae/Key.svg;strokeColor=#B3B3B3;strokeWidth=2;fontColor=#808080;" parent="ooYEH0mbtsRe8uLb8l4n-1" vertex="1">
          <mxGeometry x="498.38" y="1298" width="20.49" height="33" as="geometry" />
        </mxCell>
        <mxCell id="tDMd5CsiUgjFfo_qhA0A-147" value="Azure Key Vault" style="aspect=fixed;html=1;points=[];align=center;image;fontSize=11;image=img/lib/azure2/security/Key_Vaults.svg;strokeColor=#B3B3B3;strokeWidth=2;fontColor=#808080;" parent="ooYEH0mbtsRe8uLb8l4n-1" vertex="1">
          <mxGeometry x="575.1499999999999" y="1298" width="33" height="33" as="geometry" />
        </mxCell>
        <mxCell id="tDMd5CsiUgjFfo_qhA0A-148" value="Storage Account" style="aspect=fixed;html=1;points=[];align=center;image;fontSize=11;image=img/lib/azure2/storage/Storage_Accounts.svg;rounded=1;strokeColor=#FFFFFF;strokeWidth=1;fillColor=#D4E1F5;fontColor=#808080;" parent="ooYEH0mbtsRe8uLb8l4n-1" vertex="1">
          <mxGeometry x="667.5" y="1298" width="41.25" height="33" as="geometry" />
        </mxCell>
        <mxCell id="tDMd5CsiUgjFfo_qhA0A-149" value="Subscription&lt;br style=&quot;font-size: 11px&quot;&gt;" style="aspect=fixed;html=1;points=[];align=center;image;fontSize=11;image=img/lib/mscae/Key.svg;strokeColor=#B3B3B3;strokeWidth=2;fontColor=#808080;" parent="ooYEH0mbtsRe8uLb8l4n-1" vertex="1">
          <mxGeometry x="-846.16" y="1370" width="20.49" height="33" as="geometry" />
        </mxCell>
        <mxCell id="tDMd5CsiUgjFfo_qhA0A-150" value="Azure Key Vault" style="aspect=fixed;html=1;points=[];align=center;image;fontSize=11;image=img/lib/azure2/security/Key_Vaults.svg;strokeColor=#B3B3B3;strokeWidth=2;fontColor=#808080;" parent="ooYEH0mbtsRe8uLb8l4n-1" vertex="1">
          <mxGeometry x="-769.3900000000001" y="1370" width="33" height="33" as="geometry" />
        </mxCell>
        <mxCell id="tDMd5CsiUgjFfo_qhA0A-151" value="Storage Account" style="aspect=fixed;html=1;points=[];align=center;image;fontSize=11;image=img/lib/azure2/storage/Storage_Accounts.svg;rounded=1;strokeColor=#FFFFFF;strokeWidth=1;fillColor=#D4E1F5;fontColor=#808080;" parent="ooYEH0mbtsRe8uLb8l4n-1" vertex="1">
          <mxGeometry x="-677.04" y="1370" width="41.25" height="33" as="geometry" />
        </mxCell>
        <mxCell id="tDMd5CsiUgjFfo_qhA0A-152" value="Subscription&lt;br&gt;PRODUCTIVO" style="aspect=fixed;html=1;points=[];align=center;image;fontSize=11;image=img/lib/mscae/Key.svg;strokeColor=#B3B3B3;strokeWidth=2;fontColor=#808080;" parent="ooYEH0mbtsRe8uLb8l4n-1" vertex="1">
          <mxGeometry x="505.26" y="1870" width="20.49" height="33" as="geometry" />
        </mxCell>
        <mxCell id="tDMd5CsiUgjFfo_qhA0A-153" value="Azure Key Vault" style="aspect=fixed;html=1;points=[];align=center;image;fontSize=11;image=img/lib/azure2/security/Key_Vaults.svg;strokeColor=#B3B3B3;strokeWidth=2;fontColor=#808080;" parent="ooYEH0mbtsRe8uLb8l4n-1" vertex="1">
          <mxGeometry x="582.0299999999999" y="1870" width="33" height="33" as="geometry" />
        </mxCell>
        <mxCell id="tDMd5CsiUgjFfo_qhA0A-154" value="Storage Account" style="aspect=fixed;html=1;points=[];align=center;image;fontSize=11;image=img/lib/azure2/storage/Storage_Accounts.svg;rounded=1;strokeColor=#FFFFFF;strokeWidth=1;fillColor=#D4E1F5;fontColor=#808080;" parent="ooYEH0mbtsRe8uLb8l4n-1" vertex="1">
          <mxGeometry x="674.38" y="1870" width="41.25" height="33" as="geometry" />
        </mxCell>
        <mxCell id="tDMd5CsiUgjFfo_qhA0A-155" style="edgeStyle=orthogonalEdgeStyle;rounded=0;orthogonalLoop=1;jettySize=auto;html=1;entryX=-0.004;entryY=0.449;entryDx=0;entryDy=0;entryPerimeter=0;" parent="ooYEH0mbtsRe8uLb8l4n-1" source="tDMd5CsiUgjFfo_qhA0A-156" target="tDMd5CsiUgjFfo_qhA0A-169" edge="1">
          <mxGeometry relative="1" as="geometry">
            <Array as="points">
              <mxPoint x="-126" y="1312" />
            </Array>
          </mxGeometry>
        </mxCell>
        <mxCell id="tDMd5CsiUgjFfo_qhA0A-156" value="Static Apps" style="aspect=fixed;html=1;points=[];align=center;image;fontSize=12;image=img/lib/azure2/preview/Static_Apps.svg;rounded=1;strokeColor=#999999;strokeWidth=4;fillColor=#D4E1F5;" parent="ooYEH0mbtsRe8uLb8l4n-1" vertex="1">
          <mxGeometry x="-154.26" y="1392.25" width="56.89" height="45.51" as="geometry" />
        </mxCell>
        <mxCell id="tDMd5CsiUgjFfo_qhA0A-157" value="SYSTEM&lt;br&gt;Node Pool" style="rounded=0;whiteSpace=wrap;html=1;strokeWidth=1;align=center;verticalAlign=top;" parent="ooYEH0mbtsRe8uLb8l4n-1" vertex="1">
          <mxGeometry x="9.379999999999994" y="2180" width="187.12" height="60" as="geometry" />
        </mxCell>
        <mxCell id="tDMd5CsiUgjFfo_qhA0A-158" value="PROD&lt;br&gt;Node Pool" style="rounded=0;whiteSpace=wrap;html=1;strokeWidth=1;align=center;verticalAlign=top;" parent="ooYEH0mbtsRe8uLb8l4n-1" vertex="1">
          <mxGeometry x="268.38" y="2180" width="187.12" height="60" as="geometry" />
        </mxCell>
        <mxCell id="tDMd5CsiUgjFfo_qhA0A-159" style="edgeStyle=orthogonalEdgeStyle;rounded=0;orthogonalLoop=1;jettySize=auto;html=1;endArrow=classic;endFill=1;strokeWidth=1;" parent="ooYEH0mbtsRe8uLb8l4n-1" source="tDMd5CsiUgjFfo_qhA0A-160" target="tDMd5CsiUgjFfo_qhA0A-113" edge="1">
          <mxGeometry relative="1" as="geometry" />
        </mxCell>
        <mxCell id="tDMd5CsiUgjFfo_qhA0A-160" value="SFTP Gateway&amp;nbsp;" style="aspect=fixed;html=1;points=[];align=center;image;fontSize=12;image=img/lib/azure2/storage/Import_Export_Jobs.svg;" parent="ooYEH0mbtsRe8uLb8l4n-1" vertex="1">
          <mxGeometry x="-177.88" y="2306.5" width="64" height="67" as="geometry" />
        </mxCell>
        <mxCell id="tDMd5CsiUgjFfo_qhA0A-161" style="edgeStyle=orthogonalEdgeStyle;rounded=0;orthogonalLoop=1;jettySize=auto;html=1;endArrow=classic;endFill=1;strokeWidth=1;" parent="ooYEH0mbtsRe8uLb8l4n-1" source="tDMd5CsiUgjFfo_qhA0A-162" target="tDMd5CsiUgjFfo_qhA0A-106" edge="1">
          <mxGeometry relative="1" as="geometry" />
        </mxCell>
        <mxCell id="tDMd5CsiUgjFfo_qhA0A-162" value="SFTP Gateway&amp;nbsp;" style="aspect=fixed;html=1;points=[];align=center;image;fontSize=12;image=img/lib/azure2/storage/Import_Export_Jobs.svg;" parent="ooYEH0mbtsRe8uLb8l4n-1" vertex="1">
          <mxGeometry x="-140.4" y="1731.5" width="64" height="67" as="geometry" />
        </mxCell>
        <mxCell id="tDMd5CsiUgjFfo_qhA0A-169" value="API Management" style="aspect=fixed;html=1;points=[];align=center;image;fontSize=12;image=img/lib/azure2/integration/API_Management_Services.svg;" parent="ooYEH0mbtsRe8uLb8l4n-1" vertex="1">
          <mxGeometry x="11.229999999999997" y="1290" width="53.08" height="49" as="geometry" />
        </mxCell>
        <mxCell id="tDMd5CsiUgjFfo_qhA0A-170" value="API Management" style="aspect=fixed;html=1;points=[];align=center;image;fontSize=12;image=img/lib/azure2/integration/API_Management_Services.svg;" parent="ooYEH0mbtsRe8uLb8l4n-1" vertex="1">
          <mxGeometry x="9.379999999999997" y="1890" width="53.08" height="49" as="geometry" />
        </mxCell>
        <mxCell id="tDMd5CsiUgjFfo_qhA0A-171" value="Azure Active Directory" style="aspect=fixed;html=1;points=[];align=center;image;fontSize=12;image=img/lib/azure2/identity/Azure_Active_Directory.svg;" parent="ooYEH0mbtsRe8uLb8l4n-1" vertex="1">
          <mxGeometry x="-751.47" y="2256.5" width="54.69" height="50" as="geometry" />
        </mxCell>
      </root>
    </mxGraphModel>
  </diagram>
</mxfile>
